<?xml version="1.0" standalone="no"?><!DOCTYPE svg PUBLIC "-//W3C//DTD SVG 1.1//EN" "http://www.w3.org/Graphics/SVG/1.1/DTD/svg11.dtd"><svg t="1663914806368" class="icon" viewBox="0 0 1024 1024" version="1.1" xmlns="http://www.w3.org/2000/svg" p-id="5115" xmlns:xlink="http://www.w3.org/1999/xlink" width="32" height="32"><path d="M511.786404 263.03989a111.999953 111.999953 0 1 1-111.999954 111.999954 112.213287 112.213287 0 0 1 111.999954-111.999954m0-63.999973a175.999927 175.999927 0 1 0 175.999926 175.999927 176.21326 176.21326 0 0 0-175.999926-175.999927z" fill="#1afa29" p-id="5116"></path><path d="M511.786404 1023.999573a42.666649 42.666649 0 0 1-35.626652-19.199992L195.199869 575.99976a375.253177 375.253177 0 1 1 633.599736 0L547.626389 1004.799581a42.666649 42.666649 0 0 1-35.839985 19.199992z m0-938.666275A289.919879 289.919879 0 0 0 266.879839 530.133112l244.906565 373.333178 245.119898-373.546511A289.706546 289.706546 0 0 0 511.786404 85.333298z" fill="#1afa29" p-id="5117"></path></svg>