<svg width="20" height="20" viewBox="0 0 20 20" fill="none" xmlns="http://www.w3.org/2000/svg">
<g id="icon">
<path id="Vector" d="M7.75 4.07143V16.9286H6.67857V4.07143H5.07143V16.9286H15.7857V4.07143H7.75ZM4.53571 3H16.3214C16.4779 3 16.6062 3.05018 16.7066 3.15054C16.807 3.25089 16.8571 3.37929 16.8571 3.53571V17.4643C16.8571 17.6207 16.807 17.7491 16.7066 17.8495C16.6062 17.9498 16.4779 18 16.3214 18H4.53571C4.37929 18 4.25089 17.9498 4.15054 17.8495C4.05018 17.7491 4 17.6207 4 17.4643V3.53571C4 3.37929 4.05018 3.25089 4.15054 3.15054C4.25089 3.05018 4.37929 3 4.53571 3ZM9.89286 6.21429H13.1071C13.4643 6.21429 13.6429 6.39286 13.6429 6.75C13.6429 7.10714 13.4643 7.28571 13.1071 7.28571H9.89286C9.53571 7.28571 9.35714 7.10714 9.35714 6.75C9.35714 6.39286 9.53571 6.21429 9.89286 6.21429ZM9.89286 9.42857H13.1071C13.4643 9.42857 13.6429 9.60714 13.6429 9.96429C13.6429 10.3214 13.4643 10.5 13.1071 10.5H9.89286C9.53571 10.5 9.35714 10.3214 9.35714 9.96429C9.35714 9.60714 9.53571 9.42857 9.89286 9.42857ZM9.89286 12.6429H13.1071C13.4643 12.6429 13.6429 12.8214 13.6429 13.1786C13.6429 13.5357 13.4643 13.7143 13.1071 13.7143H9.89286C9.53571 13.7143 9.35714 13.5357 9.35714 13.1786C9.35714 12.8214 9.53571 12.6429 9.89286 12.6429Z" fill="black"/>
</g>
</svg>
