<svg width="176" height="39" viewBox="0 0 176 39" fill="none" xmlns="http://www.w3.org/2000/svg">
<g id="Group 57">
<g id="logo">
<g id="&#232;&#181;&#132;&#230;&#186;&#144; 2 1" clip-path="url(#clip0_55_1169)">
<g id="&#229;&#155;&#190;&#229;&#177;&#130; 2">
<g id="&#229;&#155;&#190;&#229;&#177;&#130; 1">
<path id="Vector" d="M83.2685 12.4466C81.7784 10.0921 79.5749 8.2753 76.9795 7.26137C74.505 6.27659 71.8136 5.96585 69.1798 6.36085C66.7169 6.81605 64.337 7.64118 62.1209 8.80822C57.8995 11.0353 53.9431 13.7322 50.3271 16.8475C46.7242 19.8677 43.2958 23.09 40.0583 26.499C36.8138 29.88 33.7659 33.4443 30.9297 37.1745C34.0007 33.6606 37.2666 30.322 40.7119 27.1744C42.2709 25.7219 43.8661 24.3324 45.4977 23.0059C48.8025 26.7404 52.9293 29.6565 57.553 31.5245C60.0252 32.5242 62.636 33.1389 65.2945 33.3473C68.0309 33.5699 70.7838 33.2314 73.3847 32.3523C74.6893 31.8887 75.9388 31.2823 77.1102 30.5441C78.2581 29.796 79.3242 28.9295 80.291 27.9587C81.2231 26.9856 82.0597 25.9253 82.7892 24.7924C83.5518 23.5948 84.125 22.2867 84.4886 20.9143C84.8672 19.4936 84.9543 18.011 84.7446 16.5557C84.5349 15.1004 84.0328 13.7026 83.2685 12.4466ZM79.9787 19.6071C79.6785 20.4774 79.2448 21.2956 78.6933 22.0327C78.0976 22.8201 77.429 23.5496 76.6962 24.2114C75.966 24.8494 75.1727 25.4115 74.3287 25.889C73.4846 26.3341 72.5962 26.6894 71.678 26.9493C67.9888 27.9587 63.8348 27.218 60.1674 25.4532C56.7415 23.7929 53.737 21.3769 51.3801 18.3871L51.4818 18.3072C55.1501 15.5532 59.1159 13.2195 63.3047 11.35C65.2935 10.4621 67.4032 9.87472 69.5647 9.60706C71.596 9.44313 73.6347 9.8163 75.4762 10.6891C77.2215 11.4998 78.6654 12.842 79.6011 14.5236C80.0087 15.3 80.2525 16.1517 80.3174 17.0262C80.3824 17.9006 80.2671 18.7791 79.9787 19.6071Z" fill="#898989"/>
<path id="Vector_2" d="M59.1653 2.78104C56.4025 3.82453 53.7245 5.07978 51.155 6.5356C48.8602 7.83041 46.6326 9.2411 44.4811 10.7622C42.4232 8.49377 40.1162 6.46449 37.6037 4.71279C34.8524 2.7717 31.7607 1.36504 28.4896 0.566058C25.1132 -0.227637 21.5927 -0.172747 18.2426 0.725826C14.991 1.62473 11.9829 3.24292 9.44082 5.4608C6.9839 7.60092 4.92376 10.1577 3.35508 13.0135C1.73169 15.8333 0.659605 18.9362 0.19601 22.1566C-0.304304 25.4631 0.0790392 28.843 1.30713 31.9534C1.95429 33.596 2.94466 35.0816 4.21202 36.3107C5.54078 37.5741 7.19565 38.4418 8.99056 38.8162C10.7155 39.1498 12.4949 39.0701 14.1831 38.5838C15.7523 38.1376 17.251 37.4726 18.6348 36.6085C21.2053 34.9263 23.5422 32.9118 25.5847 30.6171C29.6298 26.3469 33.6967 22.1494 37.9596 18.1552C42.1776 14.138 46.755 10.5159 51.6343 7.33445C54.0932 5.76613 56.6693 4.38949 59.3396 3.21677C62.0313 2.06574 64.8122 1.13553 67.6548 0.435337C64.7659 0.985122 61.9266 1.76962 59.1653 2.78104ZM36.7105 16.7536C32.1934 20.5444 27.8723 24.5532 23.6385 28.591C23.1011 29.0993 22.5709 29.6004 22.048 30.0434L21.2637 30.7696L20.4431 31.4232C19.3728 32.2883 18.2309 33.0609 17.0298 33.7326C14.6841 35.0035 12.0625 35.7225 9.88382 35.1197C7.70515 34.517 6.07841 32.7377 5.28683 30.4138C4.49181 27.9853 4.35153 25.3901 4.88014 22.8901C5.38819 20.3039 6.38655 17.8388 7.82135 15.6279C8.51872 14.5147 9.30307 13.4584 10.167 12.4688C11.0327 11.5046 11.983 10.6199 13.0066 9.82539C14.9712 8.27549 17.2598 7.18826 19.7023 6.64454C22.0798 6.15297 24.5417 6.25524 26.8702 6.94229C31.3074 8.24223 35.2508 11.4376 38.4897 15.2866L36.7105 16.7536Z" fill="#26499D"/>
<path id="Vector_3" d="M111.606 26.2593H110.516V33.4054H114.837L115.055 32.425H111.606V26.2593ZM121.664 30.958C121.664 31.3519 121.507 31.7296 121.229 32.0081C120.95 32.2867 120.573 32.4431 120.179 32.4431C119.785 32.4431 119.407 32.2867 119.129 32.0081C118.85 31.7296 118.694 31.3519 118.694 30.958V26.2593H117.604V31.0088C117.604 31.6907 117.875 32.3446 118.357 32.8267C118.839 33.3088 119.493 33.5797 120.175 33.5797C120.857 33.5797 121.511 33.3088 121.993 32.8267C122.475 32.3446 122.746 31.6907 122.746 31.0088V26.2593H121.664V30.958ZM130.335 27.2325L130.56 26.2593H125.978V33.4054H130.335L130.56 32.425H127.089V30.2463H130.357L130.582 29.2732H127.089V27.2325H130.335ZM138.418 27.1744C138.767 27.1702 139.106 27.2919 139.373 27.5173C139.64 27.7427 139.816 28.0567 139.87 28.4017H140.981C140.907 27.7825 140.602 27.2141 140.126 26.8102C139.651 26.4063 139.041 26.1966 138.418 26.223C138.07 26.2137 137.723 26.2744 137.399 26.4017C137.074 26.5289 136.779 26.7201 136.53 26.9638C135.803 27.69 135.84 28.4598 135.84 29.8687C135.84 31.2775 135.84 32.0473 136.53 32.7736C136.779 33.0138 137.074 33.2017 137.397 33.3264C137.72 33.4511 138.064 33.5101 138.411 33.4998C139.033 33.5245 139.643 33.3142 140.117 32.9106C140.592 32.507 140.898 31.9397 140.974 31.3211H139.87C139.836 31.5962 139.723 31.8557 139.546 32.0688C139.368 32.2819 139.134 32.4398 138.869 32.5238C138.605 32.6078 138.322 32.6144 138.054 32.5428C137.787 32.4713 137.545 32.3245 137.358 32.12C137.002 31.7351 136.922 31.3211 136.922 29.8832C136.922 28.4453 137.002 28.0313 137.358 27.6464C137.492 27.4991 137.656 27.3811 137.839 27.2999C138.021 27.2187 138.218 27.1759 138.418 27.1744ZM143.872 33.4054H144.954V26.2593H143.872V33.4054ZM158.643 27.1526C158.992 27.1484 159.331 27.2701 159.598 27.4955C159.865 27.7209 160.041 28.0349 160.096 28.3799H161.221C161.15 27.7606 160.847 27.1913 160.372 26.7869C159.898 26.3826 159.288 26.1733 158.665 26.2012C158.316 26.1967 157.969 26.2625 157.646 26.3947C157.323 26.527 157.03 26.723 156.784 26.971C156.058 27.6973 156.058 28.4671 156.058 29.8759C156.058 31.2848 156.058 32.0546 156.784 32.7808C157.033 33.021 157.328 33.209 157.651 33.3337C157.974 33.4584 158.319 33.5173 158.665 33.507C159.287 33.5316 159.895 33.321 160.369 32.9173C160.843 32.5136 161.147 31.9463 161.221 31.3284H160.125C160.072 31.6747 159.896 31.9904 159.629 32.2173C159.362 32.4441 159.022 32.5669 158.672 32.563C158.476 32.5651 158.282 32.5276 158.101 32.4527C157.92 32.3778 157.756 32.2671 157.619 32.1272C157.263 31.7423 157.183 31.3284 157.183 29.8905C157.183 28.4525 157.263 28.0386 157.619 27.6537C157.749 27.5094 157.907 27.3926 158.083 27.3103C158.258 27.228 158.449 27.1818 158.643 27.1744V27.1526ZM165.179 26.2376H164.126V33.4054H168.483L168.709 32.425H165.252L165.179 26.2376ZM175.746 30.2971L175.971 29.324H172.478V27.2325H175.746L175.971 26.2593H171.388V33.4054H175.746L175.971 32.425H172.478V30.2463L175.746 30.2971ZM106.399 29.7743C106.692 29.6451 106.94 29.432 107.112 29.1618C107.284 28.8917 107.372 28.5766 107.365 28.2565C107.365 27.0509 106.529 26.2957 105.186 26.2957H102.397V27.2325H105.092C105.818 27.2325 106.261 27.5956 106.261 28.2637C106.261 28.9318 105.789 29.2877 105.092 29.2877H102.397V33.4054H105.302C105.584 33.4408 105.869 33.4141 106.14 33.327C106.41 33.2399 106.657 33.0947 106.865 32.9015C107.073 32.7082 107.236 32.4718 107.342 32.2087C107.448 31.9457 107.496 31.6625 107.481 31.3792C107.484 31.0336 107.383 30.6951 107.189 30.4085C106.996 30.1219 106.72 29.9007 106.399 29.7743ZM105.208 32.4831H103.494V30.3044H105.208C105.361 30.2866 105.517 30.3016 105.664 30.3482C105.812 30.3948 105.948 30.4721 106.063 30.575C106.179 30.6779 106.271 30.804 106.334 30.9451C106.398 31.0862 106.43 31.2391 106.43 31.3937C106.43 31.5484 106.398 31.7013 106.334 31.8424C106.271 31.9835 106.179 32.1096 106.063 32.2125C105.948 32.3154 105.812 32.3926 105.664 32.4393C105.517 32.4859 105.361 32.5008 105.208 32.4831ZM153.233 28.3218C153.235 28.0403 153.18 27.7613 153.07 27.5022C152.96 27.243 152.797 27.0094 152.593 26.8159C152.388 26.6223 152.146 26.473 151.881 26.3773C151.617 26.2815 151.335 26.2414 151.054 26.2593H148.28V27.2325H150.974C151.129 27.22 151.285 27.2398 151.432 27.2905C151.579 27.3412 151.714 27.4218 151.828 27.5272C151.942 27.6326 152.033 27.7605 152.096 27.9029C152.158 28.0453 152.19 28.1991 152.19 28.3545C152.19 28.5099 152.158 28.6637 152.096 28.8061C152.033 28.9484 151.942 29.0764 151.828 29.1818C151.714 29.2872 151.579 29.3678 151.432 29.4185C151.285 29.4692 151.129 29.489 150.974 29.4765H148.28V33.4054H149.362V30.4061H150.727L152.202 33.4054H153.465L151.817 30.2318C152.236 30.124 152.605 29.8754 152.863 29.5277C153.121 29.18 153.251 28.7543 153.233 28.3218ZM136.675 21.154H124.089V16.7967H136.675V15.4386V11.3573V9.99196H135.448L136.174 6.41168H124.227L124.402 5.52569H122.31L121.678 8.71381H123.77L123.959 7.7552H133.799L133.363 9.93386H124.453V11.2992H128.294V15.3805H124.089V9.93386H122.005V22.512H136.406L136.675 21.154ZM130.379 11.3573H134.583V15.4386H130.379V11.3573ZM106.856 15.4241H108.933V9.47634H106.842L106.856 15.4241ZM103.566 15.4241H105.658V9.47634H103.566V15.4241ZM113.232 11.0668V9.47634H111.112V12.3812H117.089L117.357 11.0232L113.232 11.0668ZM164.213 19.5273L162.761 19.7233V13.4851H163.974L164.242 12.1198H162.79V6.8692H164.003L164.271 5.51117H159.188V6.8692H160.64V12.1198H159.188V13.4851H160.64V20.0211L159.188 20.2172V21.5825L164.271 20.9071L164.213 19.5273ZM139.957 11.2919L141.766 10.9796V21.1467H140.633V22.512H143.857V9.22943L139.957 9.90481V11.2919ZM105.426 8.71381H107.481V7.76972H113.291V8.71381H115.382V7.76972H118.12L118.374 6.41168H115.36V5.51117H113.291V6.41168H107.481V5.51117H105.397V6.41168H102.397V7.77698H105.411L105.426 8.71381ZM155.673 6.86194L155.942 5.50391H144.656V22.512H146.748V6.8692H150.546V8.8881H147.546V10.2461H150.546V12.1198H150.001V13.4851H153.857V15.1264H149.602V12.1198H147.517V22.512H155.913V12.1198H152.601V10.2461H155.644L155.913 8.8881H152.601V6.8692L155.673 6.86194ZM153.857 21.1467H149.602V19.5055H153.828L153.857 21.1467ZM153.857 18.1329H149.602V16.4917H153.828L153.857 18.1329ZM118.374 21.154H117.365V16.3391H106.028V17.7044H107.481V21.154H105.658V16.3391H103.566V21.154H102.397V22.512H118.105L118.374 21.154ZM111.366 21.154H109.543V17.7044H111.366V21.154ZM115.28 21.154H113.458V17.7044H115.28V21.154ZM175.143 22.512L173.153 9.68695H171.062L173.059 22.512H175.143ZM139.957 7.54459L143.857 6.8692V5.51117L139.957 6.17929V7.54459ZM175.143 5.51117H165.215V6.8692H168.382L164.213 22.512H166.305L168.745 13.3471V22.512H170.829V6.8692H174.874L175.143 5.51117ZM111.112 14.0661V15.4241H117.045L117.314 14.0661H111.112Z" fill="#898989"/>
</g>
</g>
</g>
</g>
</g>
<defs>
<clipPath id="clip0_55_1169">
<rect width="176" height="38.9981" fill="white"/>
</clipPath>
</defs>
</svg>
