<svg width="20" height="20" viewBox="0 0 20 20" fill="none" xmlns="http://www.w3.org/2000/svg">
<g id="logo-codepen">
<path id="logo-codepen_2" d="M1.91523 6.98428C1.70892 7.12539 1.61991 7.35931 1.64818 7.58051L1.64818 12.4198C1.61991 12.641 1.70892 12.8749 1.91522 13.016L9.64698 18.3043C9.8597 18.4498 10.1399 18.4498 10.3527 18.3043L18.0844 13.0161C18.2857 12.8783 18.3754 12.6522 18.3533 12.4358V7.56454C18.3754 7.34812 18.2857 7.122 18.0844 6.98429L10.3527 1.69604C10.1399 1.55054 9.8597 1.55054 9.64697 1.69604L1.91523 6.98428ZM3.04303 7.50016L9.46856 3.10532V6.81807L5.75716 9.35654L3.04303 7.50016ZM10.5311 6.81807V3.10532L16.9566 7.50017L14.2425 9.35654L10.5311 6.81807ZM4.81614 10.0002L2.71068 11.4402V8.5601L4.81614 10.0002ZM17.2908 8.55885V11.4415L15.1835 10.0002L17.2908 8.55885ZM14.2425 10.6438L16.9566 12.5002L10.5311 16.895V13.1823L14.2425 10.6438ZM9.46856 13.1823V16.895L3.04303 12.5002L5.75716 10.6438L9.46856 13.1823ZM13.3014 10.0002L9.99982 12.2584L6.69818 10.0002L9.99981 7.74197L13.3014 10.0002Z" fill="#0052D9" fill-opacity="1"/>
</g>
</svg>
