<?xml version="1.0" standalone="no"?><!DOCTYPE svg PUBLIC "-//W3C//DTD SVG 1.1//EN" "http://www.w3.org/Graphics/SVG/1.1/DTD/svg11.dtd"><svg t="1603533929101" class="icon" viewBox="0 0 1024 1024" version="1.1" xmlns="http://www.w3.org/2000/svg" p-id="19754" xmlns:xlink="http://www.w3.org/1999/xlink" width="64" height="64"><defs><style type="text/css"></style></defs><path d="M472.746667 592.213333c-17.92 0-39.253333-8.533333-57.173334-24.746666l-1.706666-1.706667V450.56l1.706666-0.853333c24.746667-22.186667 44.373333-31.573333 63.146667-31.573334 41.813333 0 63.146667 29.013333 63.146667 84.48 0 52.906667-28.16 89.6-69.12 89.6z m-50.346667-29.866666c23.893333 18.773333 42.666667 21.333333 50.346667 21.333333 35.84 0 60.586667-32.426667 60.586666-81.92 0-50.346667-18.773333-75.946667-54.613333-75.946667-16.213333 0-33.28 9.386667-56.32 28.16v108.373334z" fill="#999999" p-id="19755"></path><path d="M435.2 430.933333l-132.266667 43.52s-17.066667 5.12-22.186666 27.306667c0 0-155.306667 163.84-168.106667 208.213333s76.8 139.093333 123.733333 171.52 557.226667 0 557.226667 0 104.106667-112.64 110.933333-134.826666c6.826667-23.04 7.68-26.453333-8.533333-58.88-16.213333-32.426667-157.866667-190.293333-157.866667-190.293334s-4.266667-16.213333-19.626666-23.04c-15.36-6.826667-129.706667-43.52-129.706667-43.52l-51.2 179.2-52.906667 1.706667L435.2 430.933333z" fill="#15BDB2" p-id="19756"></path><path d="M435.2 430.933333l-27.306667 8.533334-5.973333 79.36 33.28 15.36-51.2 42.666666 127.146667 58.88 119.466666-69.12-40.106666-33.28 29.866666-12.8-4.266666-81.066666-26.453334-8.533334-54.613333 152.746667h-46.08z" fill="#21D0C3" p-id="19757"></path><path d="M463.36 402.773333a87.893333 49.493333 90 1 0 98.986667 0 87.893333 49.493333 90 1 0-98.986667 0Z" fill="#EAA9A4" p-id="19758"></path><path d="M393.386667 183.466667c2.56 26.453333 15.36 102.4 31.573333 134.826666 4.266667 8.533333 35.84 68.266667 57.173333 87.893334 14.506667 12.8 44.373333 12.8 57.173334 1.706666 22.186667-20.48 62.293333-85.333333 75.946666-128.853333 13.653333-43.52 6.826667-83.626667 6.826667-83.626667s17.92-23.893333 6.826667-49.493333-36.693333-59.733333-71.68-70.826667c-34.986667-11.093333-69.12-5.973333-81.92 0s-33.28 28.16-33.28 28.16-20.48 2.56-30.72 12.8c-9.386667 10.24-20.48 44.373333-17.92 67.413334z" fill="#FFBFB8" p-id="19759"></path><path d="M393.386667 183.466667c2.56 26.453333 3.413333 23.04 3.413333 23.04l22.186667 30.72h5.12l2.56-29.013334s8.533333-5.973333 12.8-17.066666c0.853333-5.973333-0.853333-37.546667 15.36-25.6 25.6 23.04 61.44 30.72 84.48 33.28 46.933333 2.56 48.64-13.653333 60.586666-14.506667 0 5.973333-0.853333 13.653333 0 25.6s4.266667 22.186667 4.266667 22.186667l6.826667 0.853333 11.093333-32.426667 0.853333-5.973333s17.92-23.893333 6.826667-49.493333-36.693333-59.733333-71.68-70.826667c-34.986667-11.093333-69.12-5.973333-81.92 0S442.88 102.4 442.88 102.4s-20.48 2.56-30.72 12.8c-10.24 11.093333-21.333333 45.226667-18.773333 68.266667z" fill="#494948" p-id="19760"></path><path d="M388.266667 237.226667a35.84 15.36 90 1 0 30.72 0 35.84 15.36 90 1 0-30.72 0Z" fill="#FFBFB8" p-id="19761"></path><path d="M606.72 237.226667a35.84 15.36 90 1 0 30.72 0 35.84 15.36 90 1 0-30.72 0Z" fill="#FFBFB8" p-id="19762"></path><path d="M570.88 477.013333L512 653.653333l-63.146667-187.733333 58.88-5.12 4.266667 1.706667 5.973333-1.706667z" fill="#F2F2F2" p-id="19763"></path><path d="M499.2 459.946667L494.933333 587.093333h35.84L523.093333 460.8l-7.68 0.853333c-2.56 0.853333-5.973333 0.853333-8.533333 0l-7.68-1.706666z" fill="#EE4973" p-id="19764"></path><path d="M456.533333 404.48s19.626667 48.64 51.2 57.173333L458.24 503.466667 435.2 432.64l21.333333-28.16zM569.173333 404.48s-19.626667 48.64-51.2 57.173333l49.493334 41.813334 23.04-70.826667-21.333334-28.16z" fill="#FFFFFF" p-id="19765"></path><path d="M767.146667 925.866667H259.413333c-18.773333 0-34.133333-15.36-34.133333-34.133334V616.96c0-18.773333 15.36-34.133333 34.133333-34.133333h507.733334c18.773333 0 34.133333 15.36 34.133333 34.133333v274.773333c0 18.773333-15.36 34.133333-34.133333 34.133334z" fill="#DCDFE6" p-id="19766"></path><path d="M767.146667 900.266667H259.413333c-18.773333 0-34.133333-15.36-34.133333-34.133334V591.36c0-18.773333 15.36-34.133333 34.133333-34.133333h507.733334c18.773333 0 34.133333 15.36 34.133333 34.133333v274.773333c0 18.773333-15.36 34.133333-34.133333 34.133334z" fill="#FFFFFF" p-id="19767"></path><path d="M541.013333 714.24h-26.453333c-5.973333 0-7.68 10.24-0.853333 11.093333h9.386666s-7.68 11.093333-19.626666 2.56c-9.386667-8.533333-3.413333-17.92-3.413334-17.92s3.413333-6.826667 11.946667-6.826666c7.68 0 12.8 5.973333 12.8 5.973333 6.826667 5.973333 21.333333 0 15.36-12.8-11.093333-17.066667-31.573333-14.506667-31.573333-14.506667s-27.306667 0-33.28 29.013334c-3.413333 31.573333 24.746667 40.106667 24.746666 40.106666s23.893333 9.386667 40.106667-12.8c2.56-4.266667 10.24-22.186667 0.853333-23.893333zM519.68 742.4c-19.626667 5.12-29.866667-10.24-29.866667-10.24s-11.093333-17.066667 2.56-32.426667c7.68-7.68 15.36-8.533333 21.333334-8.533333 7.68 0 17.92 5.12 21.333333 11.093333 3.413333 5.973333-1.706667 11.946667-8.533333 5.12-4.266667-2.56-10.24-8.533333-21.333334-4.266666-10.24 5.12-8.533333 16.213333-8.533333 16.213333s1.706667 13.653333 17.066667 13.653333c8.533333-0.853333 12.8-9.386667 11.946666-9.386666h-11.946666c-5.12 0-4.266667-8.533333 0.853333-7.68h19.626667s2.56 0 2.56 2.56c0.853333 5.12-1.706667 18.773333-17.066667 23.893333z m17.92-24.746667z" fill="#6E7DC3" opacity=".5" p-id="19768"></path></svg>