<svg width="136" height="136" viewBox="0 0 136 136" fill="none" xmlns="http://www.w3.org/2000/svg">
<g id="Group 47">
<g id=".upload-photo-list">
<rect x="0.5" y="0.5" width="135" height="135" rx="3.5" fill="white"/>
<g id="&#229;&#155;&#190;&#231;&#137;&#135;&#229;&#141;&#160;&#228;&#189;&#141;&#229;&#155;&#190;">
<path id="Vector" d="M66.2113 68.5296L75.3515 53.2976L94.9551 90.0544H43.4956L60.6488 58.1985L66.2113 68.5296V68.5296ZM68.9558 73.4844L75.3196 85.1535H86.7877L75.0991 63.2416L68.9558 73.4844V73.4844ZM51.6997 85.1535H69.5978L60.6488 68.537L51.6997 85.1535ZM52.0722 58.1985C50.4474 58.1985 48.8892 57.5531 47.7404 56.4042C46.5915 55.2554 45.9461 53.6972 45.9461 52.0724C45.9461 50.4477 46.5915 48.8895 47.7404 47.7406C48.8892 46.5917 50.4474 45.9463 52.0722 45.9463C53.6969 45.9463 55.2551 46.5917 56.404 47.7406C57.5529 48.8895 58.1983 50.4477 58.1983 52.0724C58.1983 53.6972 57.5529 55.2554 56.404 56.4042C55.2551 57.5531 53.6969 58.1985 52.0722 58.1985Z" fill="#9FCEFF"/>
</g>
<circle id="Ellipse 21" opacity="0.6" cx="68" cy="68" r="59" fill="#ECF2FE"/>
<g id="&#232;&#167;&#134;&#233;&#162;&#145;&#230;&#150;&#135;&#228;&#187;&#182; 1">
<path id="Vector_2" d="M46.3959 43.2617V62.7459H31.0898V48.7217C31.0898 45.7069 33.5348 43.2617 36.5498 43.2617H39.3409H46.3959Z" fill="#BED8FB"/>
<path id="Vector_3" d="M104.91 58.7074V101.581C104.91 105.127 102.037 108 98.4925 108H45.7601C42.7307 108 40.1923 105.901 39.5178 103.078L39.492 99.4077L39.3423 77.5518V34.4194C39.3424 30.8733 42.2157 28 45.7601 28H74.2027C76.7588 28 85.0372 35.0583 92.3547 42.4917C99.0317 49.2764 104.91 56.3734 104.91 58.7074V58.7074Z" fill="#DDEAFB"/>
<path id="Vector_4" d="M82.7969 82.2136V96.6103C82.7969 101.267 79.0222 105.042 74.3655 105.042H40.3536C39.9663 104.439 39.6833 103.775 39.5165 103.078L39.4925 99.408L39.3428 77.5521V73.7822H74.3657C79.0224 73.7822 82.7969 77.5569 82.7969 82.2136Z" fill="#BED8FB"/>
<path id="Vector_5" d="M104.91 58.7078V74.4132C104.91 74.3956 104.909 74.3777 104.909 74.3585C104.426 55.0878 88.7283 54.1961 83.5952 49.0628L92.3549 42.4922C99.0317 49.2767 104.91 56.3737 104.91 58.7078V58.7078Z" fill="#CBE2FF"/>
<path id="Vector_6" d="M74.202 28H58.4966C58.5142 28 58.5321 28.0016 58.5513 28.0016C77.822 28.4845 78.7137 44.1818 83.847 49.315L90.4176 40.5553C83.6329 33.8784 76.5359 28 74.202 28Z" fill="#CBE2FF"/>
<path id="Vector_7" d="M104.91 58.7082V61.4234C104.91 55.7068 100.274 51.0714 94.5578 51.0714H88.2572C84.7129 51.0714 81.8383 48.1968 81.8383 44.6525V38.352C81.8383 32.6355 77.2029 28 71.4863 28H74.2015C79.0905 28 83.7808 29.9427 87.2379 33.3995L99.5102 45.6718C102.967 49.1294 104.91 53.8187 104.91 58.7082V58.7082Z" fill="#BED8FB"/>
<path id="Vector_8" d="M82.7977 76.5798V90.9765C82.7977 95.6332 79.023 99.4079 74.3663 99.4079H39.4915L39.3418 77.552V68.1484H74.3663C79.023 68.1484 82.7977 71.923 82.7977 76.5798V76.5798Z" fill="#CBE2FF"/>
<path id="Vector_9" d="M88.2576 62.6129V91.9397C88.2576 96.5964 84.4829 100.371 79.8262 100.371H36.5507C36.3882 100.371 36.2288 100.365 36.0694 100.349C33.2799 100.107 31.0908 97.7652 31.0908 94.9111V48.7217C31.0908 50.2284 31.7025 51.5932 32.6908 52.5817C33.5713 53.4637 34.7528 54.0465 36.0694 54.1592C36.2288 54.1753 36.3882 54.1817 36.5507 54.1817H79.8262C84.4831 54.1815 88.2576 57.9562 88.2576 62.6129V62.6129Z" fill="#266FE8"/>
<path id="Vector_10" d="M39.1392 88.4285V66.1256C39.1392 63.9744 40.8831 62.2305 43.0343 62.2305H75.9314C78.2942 62.2305 80.2095 64.1459 80.2095 66.5086V88.0454C80.2095 90.4082 78.2941 92.3237 75.9313 92.3237H43.0343C40.8831 92.3237 39.1392 90.5798 39.1392 88.4285Z" fill="#DDEAFB"/>
<path id="Vector_11" d="M36.0694 54.159V100.349C33.2799 100.107 31.0908 97.7652 31.0908 94.9111V48.7217C31.0908 50.2284 31.7025 51.5932 32.6908 52.5817C33.5713 53.4637 34.7527 54.0464 36.0694 54.159V54.159Z" fill="#266FE8"/>
<path id="Vector_12" d="M66.7429 74.8978L58.5966 70.1943C56.7655 69.1371 54.4766 70.4587 54.4766 72.5731V81.9798C54.4766 84.0942 56.7655 85.4157 58.5966 84.3585L66.7429 79.6551C68.574 78.5979 68.574 75.9549 66.7429 74.8978Z" fill="#0052D9"/>
</g>
<path id="Vector_13" d="M120 25C120 25.5143 119.711 25.9643 119.261 26.1571L114.407 28.4393L112.157 33.2607C111.964 33.7107 111.514 34 111 34C110.486 34 110.036 33.7107 109.811 33.2286L107.561 28.4071L102.739 26.1571C102.289 25.9643 102 25.5143 102 25C102 24.4857 102.289 24.0357 102.771 23.8107L107.593 21.5607L109.843 16.7393C110.036 16.2893 110.486 16 111 16C111.514 16 111.964 16.2893 112.189 16.7714L114.439 21.5929L119.261 23.8429C119.711 24.0357 120 24.4857 120 25Z" fill="#FFACAD"/>
<path id="Vector_14" d="M114 45C114 45.3429 113.807 45.6429 113.507 45.7714L110.271 47.2929L108.771 50.5071C108.643 50.8071 108.343 51 108 51C107.657 51 107.357 50.8071 107.207 50.4857L105.707 47.2714L102.493 45.7714C102.193 45.6429 102 45.3429 102 45C102 44.6571 102.193 44.3571 102.514 44.2071L105.729 42.7071L107.229 39.4929C107.357 39.1929 107.657 39 108 39C108.343 39 108.643 39.1929 108.793 39.5143L110.293 42.7286L113.507 44.2286C113.807 44.3571 114 44.6571 114 45Z" fill="#FFACAD" fill-opacity="0.6"/>
<rect x="0.5" y="0.5" width="135" height="135" rx="3.5" stroke="#DCDFE6"/>
</g>
</g>
</svg>
