<svg width="20" height="20" viewBox="0 0 20 20" fill="none" xmlns="http://www.w3.org/2000/svg">
<g id="icon">
<path id="Vector" d="M17.4643 5.67857C17.7606 5.67857 18 5.91797 18 6.21429C18 6.5106 17.7606 6.75 17.4643 6.75H12.1071C11.8108 6.75 11.5714 6.5106 11.5714 6.21429C11.5714 5.91797 11.8108 5.67857 12.1071 5.67857H17.4643ZM17.4643 7.82143C17.7606 7.82143 18 8.06083 18 8.35714C18 8.65346 17.7606 8.89286 17.4643 8.89286H14.25C13.9537 8.89286 13.7143 8.65346 13.7143 8.35714C13.7143 8.06083 13.9537 7.82143 14.25 7.82143H17.4643ZM8.35714 6.75H6.85882C6.70647 6.75 6.5625 6.81529 6.46205 6.92578L6.40681 6.99777L4.15513 10.5251C4.1183 10.582 4.09319 10.6456 4.08147 10.7126L4.07143 10.8131V13.7143C4.07143 13.9771 4.2606 14.1964 4.51004 14.2416L4.60714 14.25H5.23661C5.4827 13.5033 6.1875 12.9643 7.01786 12.9643C7.84821 12.9643 8.55134 13.5033 8.79911 14.25H12.2009C12.447 13.5033 13.1518 12.9643 13.9821 12.9643C14.8125 12.9643 15.5156 13.5033 15.7634 14.25H16.3929C16.6557 14.25 16.875 14.0608 16.9202 13.8114L16.9286 13.7143V11.5714H9.96429C9.12891 11.5714 8.44252 10.9336 8.36384 10.1183L8.35714 9.96429V6.75ZM7.01786 14.0357C6.57422 14.0357 6.21429 14.3956 6.21429 14.8393C6.21429 15.2829 6.57422 15.6429 7.01786 15.6429C7.4615 15.6429 7.82143 15.2829 7.82143 14.8393C7.82143 14.3956 7.4615 14.0357 7.01786 14.0357ZM13.9821 14.0357C13.5385 14.0357 13.1786 14.3956 13.1786 14.8393C13.1786 15.2829 13.5385 15.6429 13.9821 15.6429C14.4258 15.6429 14.7857 15.2829 14.7857 14.8393C14.7857 14.3956 14.4258 14.0357 13.9821 14.0357ZM7.01786 16.7143C6.149 16.7143 5.41908 16.1233 5.20647 15.3214H4.60714C3.77176 15.3214 3.08538 14.6836 3.0067 13.8683L3 13.7143V10.8131C3 10.5686 3.05525 10.3276 3.16239 10.1083L3.25112 9.94922L5.50279 6.42187C5.76897 6.00502 6.20926 5.73716 6.69475 5.68694L6.85882 5.67857H8.35714V4.60714C8.35714 3.77176 8.99498 3.08538 9.81027 3.0067L9.96429 3H17.4643C17.7606 3 18 3.2394 18 3.53571C18 3.83203 17.7606 4.07143 17.4643 4.07143H9.96429C9.70145 4.07143 9.48214 4.2606 9.43694 4.51004L9.42857 4.60714V9.96429C9.42857 10.2271 9.61775 10.4464 9.86719 10.4916L9.96429 10.5H17.4643C17.7606 10.5 18 10.7394 18 11.0357V13.7143C18 14.5497 17.3622 15.236 16.5469 15.3147L16.3929 15.3214H15.7935C15.5809 16.1233 14.8493 16.7126 13.9821 16.7126C13.115 16.7126 12.3834 16.1217 12.1708 15.3198H8.82924C8.61663 16.1233 7.88672 16.7143 7.01786 16.7143Z" fill="#0052D9"/>
</g>
</svg>
