<svg width="20" height="20" viewBox="0 0 20 20" fill="none" xmlns="http://www.w3.org/2000/svg">
<g id="chart-bubble">
<g id="chart-bubble_2">
<path d="M11.25 6.875C11.25 8.94608 9.57092 10.625 7.5 10.625C5.42908 10.625 3.75 8.94608 3.75 6.875C3.75 4.80392 5.42908 3.125 7.5 3.125C9.57092 3.125 11.25 4.80392 11.25 6.875ZM10 6.875C10 5.49429 8.88062 4.375 7.5 4.375C6.11938 4.375 5 5.49429 5 6.875C5 8.25571 6.11938 9.375 7.5 9.375C8.88062 9.375 10 8.25571 10 6.875Z" fill="black" fill-opacity="0.9"/>
<path d="M17.5 12.5C17.5 14.2259 16.1008 15.625 14.375 15.625C12.6492 15.625 11.25 14.2259 11.25 12.5C11.25 10.7741 12.6492 9.375 14.375 9.375C16.1008 9.375 17.5 10.7741 17.5 12.5ZM16.25 12.5C16.25 11.4645 15.4105 10.625 14.375 10.625C13.3395 10.625 12.5 11.4645 12.5 12.5C12.5 13.5355 13.3395 14.375 14.375 14.375C15.4105 14.375 16.25 13.5355 16.25 12.5Z" fill="black" fill-opacity="0.9"/>
<path d="M6.25 15C6.25 16.0355 5.41046 16.875 4.375 16.875C3.33954 16.875 2.5 16.0355 2.5 15C2.5 13.9645 3.33954 13.125 4.375 13.125C5.41046 13.125 6.25 13.9645 6.25 15Z" fill="black" fill-opacity="0.9"/>
<path d="M16.25 5.625C16.9403 5.625 17.5 5.06536 17.5 4.375C17.5 3.68464 16.9403 3.125 16.25 3.125C15.5597 3.125 15 3.68464 15 4.375C15 5.06536 15.5597 5.625 16.25 5.625Z" fill="black" fill-opacity="0.9"/>
</g>
</g>
</svg>
