<svg width="20" height="20" viewBox="0 0 20 20" fill="none" xmlns="http://www.w3.org/2000/svg">
<g id="home">
<path id="Vector" d="M16.7485 17.7318H4.25151C3.92014 17.7317 3.60233 17.6002 3.36773 17.3662C3.13314 17.1321 3.0009 16.8146 3 16.4833V9.53757C2.9999 9.35632 3.0394 9.17723 3.11574 9.01284C3.19207 8.84845 3.3034 8.70271 3.44193 8.58583L9.69042 3.29775C9.91645 3.10554 10.2035 3 10.5002 3C10.7969 3 11.0839 3.10554 11.31 3.29775L17.5581 8.58546C17.6966 8.70243 17.8079 8.84823 17.8842 9.01268C17.9606 9.17713 18.0001 9.35627 18 9.53757V16.4833C17.9991 16.8146 17.8669 17.1321 17.6323 17.3662C17.3977 17.6002 17.0799 17.7317 16.7485 17.7318ZM16.983 9.53757C16.9831 9.50362 16.9757 9.47008 16.9614 9.43928C16.9472 9.40847 16.9264 9.38115 16.9005 9.35921L10.652 4.07113C10.6095 4.03505 10.5557 4.01524 10.5 4.01524C10.4443 4.01524 10.3905 4.03505 10.348 4.07113L4.09992 9.35921C4.07391 9.38108 4.053 9.40838 4.03867 9.43919C4.02434 9.47001 4.01693 9.50359 4.01697 9.53757V16.4833C4.01697 16.6122 4.12217 16.7174 4.25151 16.7174H16.7485C16.8106 16.7174 16.8702 16.6928 16.9142 16.6489C16.9582 16.605 16.9829 16.5454 16.983 16.4833V9.53757ZM12.5588 10.3664H8.44118C8.38044 10.3664 8.32218 10.3423 8.2792 10.2994C8.23621 10.2564 8.21202 10.1982 8.21192 10.1375V9.66125C8.21192 9.53493 8.31448 9.43274 8.44118 9.43274H12.5588C12.6855 9.43274 12.7881 9.53493 12.7881 9.66125V10.1375C12.788 10.1982 12.7638 10.2564 12.7208 10.2994C12.6778 10.3423 12.6196 10.3664 12.5588 10.3664Z" fill="black"/>
</g>
</svg>
