<svg width="30" height="30" viewBox="0 0 30 30" fill="none" xmlns="http://www.w3.org/2000/svg">
<g id="video-play">
<path id="Vector" d="M14.875 1.875C18.5509 1.97157 21.6124 3.2434 24.0595 5.6905C26.5066 8.1376 27.7784 11.1991 27.875 14.875C27.7784 18.5509 26.5066 21.6124 24.0595 24.0595C21.6124 26.5066 18.5509 27.7784 14.875 27.875C11.1991 27.7784 8.1376 26.5066 5.6905 24.0595C3.2434 21.6124 1.97157 18.5509 1.875 14.875C1.97157 11.1991 3.2434 8.1376 5.6905 5.6905C8.1376 3.2434 11.1991 1.97157 14.875 1.875V1.875ZM14.875 26.0179C18.0284 25.9405 20.6544 24.8522 22.753 22.753C24.8516 20.6538 25.9399 18.0278 26.0179 14.875C25.9405 11.7216 24.8522 9.09557 22.753 6.997C20.6538 4.89843 18.0278 3.81014 14.875 3.73214C11.7216 3.80952 9.09557 4.89781 6.997 6.997C4.89843 9.09619 3.81014 11.7222 3.73214 14.875C3.80952 18.0284 4.89781 20.6544 6.997 22.753C9.09619 24.8516 11.7222 25.9399 14.875 26.0179ZM13.4821 18.8214L19.4306 14.875L13.4821 10.9286V18.8214ZM13.8016 8.89779L21.0268 13.7152C21.4329 14.0055 21.6359 14.3925 21.6359 14.8759C21.6359 15.3594 21.4329 15.7463 21.0268 16.0366L13.8016 20.8541C13.5694 21.0088 13.3277 21.0912 13.0764 21.1011C12.825 21.111 12.5879 21.0528 12.3651 20.9265C12.1422 20.8002 11.9633 20.6309 11.8284 20.4186C11.6934 20.2062 11.6256 19.9645 11.625 19.6934V10.0594C11.625 9.78829 11.6928 9.54655 11.8284 9.33421C11.9639 9.12188 12.1428 8.95257 12.3651 8.82629C12.5873 8.7 12.8244 8.64181 13.0764 8.65171C13.3283 8.66162 13.57 8.74395 13.8016 8.89871V8.89779Z" fill="#0052D9" fill-opacity="0.6"/>
</g>
</svg>
