<?xml version="1.0" encoding="UTF-8"?>
<svg width="548px" height="548px" viewBox="0 0 548 548" version="1.1" xmlns="http://www.w3.org/2000/svg" xmlns:xlink="http://www.w3.org/1999/xlink">
    <title>编组 5</title>
    <g id="页面-1" stroke="none" stroke-width="1" fill="none" fill-rule="evenodd">
        <g id="驾驶舱2.0-登陆页" transform="translate(-1161.000000, -270.000000)" fill="#000000" fill-rule="nonzero">
            <g id="编组-5" transform="translate(1161.070000, 270.760000)">
                <polygon id="路径" opacity="0.4" points="535.07 546.75 547.58 536.53 547.58 16.27 535.07 0.82 353.28 0.82 336.93 13.64 336.93 117.05 347.55 126.41 430.47 126.28 452.62 143.58 452.62 273.27 442.25 282.66 442.25 359.56 336.93 465.94 336.93 475.16 368.6 506.47 368.6 535.65 380.48 546.35"></polygon>
                <polygon id="路径" opacity="0.2" points="334.81 466.61 1.13686838e-13 466.61 1.13686838e-13 525.1 17.03 546.24 377.78 546.24 366.55 535.62 366.66 506.45 334.81 475.16"></polygon>
                <path d="M429.93,127.48 L346.68,127.48 L334.84,117.05 L334.84,13.65 L351.19,0.82 L17.37,0 L0.03,18.16 L0.03,465.05 L335.73,465.05 L440.16,359.55 L440.16,282.66 L450.53,273.27 L450.53,143.58 L429.93,127.48 Z M366.52,506.48 L334.84,475.17 L334.84,466.88 L0,466.88 L0,525.11 L17,546.25 L377.75,546.25 L366.46,535.66 L366.52,506.48 Z" id="形状" opacity="0.4"></path>
            </g>
        </g>
    </g>
</svg>