<?xml version="1.0" encoding="UTF-8"?>
<svg width="813px" height="1080px" viewBox="0 0 813 1080" version="1.1" xmlns="http://www.w3.org/2000/svg" xmlns:xlink="http://www.w3.org/1999/xlink">
    <title>编组</title>
    <g id="页面-1" stroke="none" stroke-width="1" fill="none" fill-rule="evenodd">
        <g id="编组">
            <polygon id="Fill-1" fill="#FFFFFF" points="643.6226 0 643.6226 9.097 633.6126 9.097 633.6126 9.893 643.6226 9.893 643.6226 19.147 644.3696 19.147 644.3696 9.893 654.2556 9.893 654.2556 9.097 644.3696 9.097 644.3696 0"></polygon>
            <polygon id="Fill-2" fill="#FFFFFF" points="802.0262 0 802.0262 9.097 792.0162 9.097 792.0162 9.893 802.0262 9.893 802.0262 19.147 802.7732 19.147 802.7732 9.893 812.6582 9.893 812.6582 9.097 802.7732 9.097 802.7732 0"></polygon>
            <polygon id="Fill-3" fill="#FFFFFF" points="644.3695 160.595 654.2545 160.595 654.2545 161.39 644.3695 161.39 644.3695 170.646 643.6225 170.646 643.6225 161.39 633.6135 161.39 633.6135 160.595 643.6225 160.595 643.6225 151.498 644.3695 151.498"></polygon>
            <polygon id="Fill-4" fill="#FFFFFF" points="802.0262 151.4979 802.0262 160.5949 792.0162 160.5949 792.0162 161.3909 802.0262 161.3909 802.0262 170.6459 802.7732 170.6459 802.7732 161.3909 812.6582 161.3909 812.6582 160.5949 802.7732 160.5949 802.7732 151.4979"></polygon>
            <polygon id="Stroke-5" stroke="#FFFFFF" stroke-width="0.051" points="644.0782 161.0724 802.4662 161.0724 802.4662 9.5744 644.0782 9.5744"></polygon>
            <polygon id="Fill-6" fill="#FFFFFF" points="485.219 0 485.219 9.097 475.21 9.097 475.21 9.893 485.219 9.893 485.219 19.147 485.966 19.147 485.966 9.893 495.852 9.893 495.852 9.097 485.966 9.097 485.966 0"></polygon>
            <polygon id="Fill-7" fill="#FFFFFF" points="643.6226 0 643.6226 9.097 633.6126 9.097 633.6126 9.893 643.6226 9.893 643.6226 19.147 644.3696 19.147 644.3696 9.893 654.2556 9.893 654.2556 9.097 644.3696 9.097 644.3696 0"></polygon>
            <polygon id="Fill-8" fill="#FFFFFF" points="485.9662 160.595 495.8512 160.595 495.8512 161.39 485.9662 161.39 485.9662 170.646 485.2192 170.646 485.2192 161.39 475.2102 161.39 475.2102 160.595 485.2192 160.595 485.2192 151.498 485.9662 151.498"></polygon>
            <polygon id="Fill-9" fill="#FFFFFF" points="644.3695 160.595 654.2545 160.595 654.2545 161.39 644.3695 161.39 644.3695 170.646 643.6225 170.646 643.6225 161.39 633.6135 161.39 633.6135 160.595 643.6225 160.595 643.6225 151.498 644.3695 151.498"></polygon>
            <polygon id="Stroke-10" stroke="#FFFFFF" stroke-width="0.051" points="485.6762 161.0724 644.0642 161.0724 644.0642 9.5744 485.6762 9.5744"></polygon>
            <polygon id="Fill-11" fill="#FFFFFF" points="326.8163 0 326.8163 9.097 316.8063 9.097 316.8063 9.893 326.8163 9.893 326.8163 19.147 327.5633 19.147 327.5633 9.893 337.4483 9.893 337.4483 9.097 327.5633 9.097 327.5633 0"></polygon>
            <polygon id="Fill-12" fill="#FFFFFF" points="485.219 0 485.219 9.097 475.21 9.097 475.21 9.893 485.219 9.893 485.219 19.147 485.966 19.147 485.966 9.893 495.852 9.893 495.852 9.097 485.966 9.097 485.966 0"></polygon>
            <polygon id="Fill-13" fill="#FFFFFF" points="327.5629 160.595 337.4479 160.595 337.4479 161.39 327.5629 161.39 327.5629 170.646 326.8159 170.646 326.8159 161.39 316.8069 161.39 316.8069 160.595 326.8159 160.595 326.8159 151.498 327.5629 151.498"></polygon>
            <polygon id="Fill-14" fill="#FFFFFF" points="485.9662 160.595 495.8512 160.595 495.8512 161.39 485.9662 161.39 485.9662 170.646 485.2192 170.646 485.2192 161.39 475.2102 161.39 475.2102 160.595 485.2192 160.595 485.2192 151.498 485.9662 151.498"></polygon>
            <polygon id="Stroke-15" stroke="#FFFFFF" stroke-width="0.051" points="327.2722 161.0724 485.6602 161.0724 485.6602 9.5744 327.2722 9.5744"></polygon>
            <polygon id="Fill-16" fill="#FFFFFF" points="168.4127 0 168.4127 9.097 158.4037 9.097 158.4037 9.893 168.4127 9.893 168.4127 19.147 169.1597 19.147 169.1597 9.893 179.0447 9.893 179.0447 9.097 169.1597 9.097 169.1597 0"></polygon>
            <polygon id="Fill-17" fill="#FFFFFF" points="326.8163 0 326.8163 9.097 316.8063 9.097 316.8063 9.893 326.8163 9.893 326.8163 19.147 327.5633 19.147 327.5633 9.893 337.4483 9.893 337.4483 9.097 327.5633 9.097 327.5633 0"></polygon>
            <polygon id="Fill-18" fill="#FFFFFF" points="169.1596 160.595 179.0446 160.595 179.0446 161.39 169.1596 161.39 169.1596 170.646 168.4126 170.646 168.4126 161.39 158.4036 161.39 158.4036 160.595 168.4126 160.595 168.4126 151.498 169.1596 151.498"></polygon>
            <polygon id="Fill-19" fill="#FFFFFF" points="327.5629 160.595 337.4479 160.595 337.4479 161.39 327.5629 161.39 327.5629 170.646 326.8159 170.646 326.8159 161.39 316.8069 161.39 316.8069 160.595 326.8159 160.595 326.8159 151.498 327.5629 151.498"></polygon>
            <polygon id="Stroke-20" stroke="#FFFFFF" stroke-width="0.051" points="168.8692 161.0724 327.2572 161.0724 327.2572 9.5744 168.8692 9.5744"></polygon>
            <polygon id="Fill-21" fill="#FFFFFF" points="10.01 0 10.01 9.097 7.10542736e-15 9.097 7.10542736e-15 9.893 10.01 9.893 10.01 19.147 10.756 19.147 10.756 9.893 20.642 9.893 20.642 9.097 10.756 9.097 10.756 0"></polygon>
            <polygon id="Fill-22" fill="#FFFFFF" points="168.4127 0 168.4127 9.097 158.4037 9.097 158.4037 9.893 168.4127 9.893 168.4127 19.147 169.1597 19.147 169.1597 9.893 179.0447 9.893 179.0447 9.097 169.1597 9.097 169.1597 0"></polygon>
            <polygon id="Fill-23" fill="#FFFFFF" points="10.01 151.4979 10.01 160.5949 7.10542736e-15 160.5949 7.10542736e-15 161.3909 10.01 161.3909 10.01 170.6459 10.756 170.6459 10.756 161.3909 20.642 161.3909 20.642 160.5949 10.756 160.5949 10.756 151.4979"></polygon>
            <polygon id="Fill-24" fill="#FFFFFF" points="169.1596 160.595 179.0446 160.595 179.0446 161.39 169.1596 161.39 169.1596 170.646 168.4126 170.646 168.4126 161.39 158.4036 161.39 158.4036 160.595 168.4126 160.595 168.4126 151.498 169.1596 151.498"></polygon>
            <polygon id="Stroke-25" stroke="#FFFFFF" stroke-width="0.051" points="10.4662 161.0724 168.8542 161.0724 168.8542 9.5744 10.4662 9.5744"></polygon>
            <polygon id="Fill-26" fill="#FFFFFF" points="10.01 0 10.01 9.097 7.10542736e-15 9.097 7.10542736e-15 9.893 10.01 9.893 10.01 19.147 10.756 19.147 10.756 9.893 20.642 9.893 20.642 9.097 10.756 9.097 10.756 0"></polygon>
            <polygon id="Fill-27" fill="#FFFFFF" points="10.01 151.4979 10.01 160.5949 7.10542736e-15 160.5949 7.10542736e-15 161.3909 10.01 161.3909 10.01 170.6459 10.756 170.6459 10.756 161.3909 20.642 161.3909 20.642 160.5949 10.756 160.5949 10.756 151.4979"></polygon>
            <line x1="10.4506" y1="9.574" x2="10.4506" y2="161.072" id="Stroke-28" stroke="#FFFFFF" stroke-width="0.051"></line>
            <polygon id="Fill-29" fill="#FFFFFF" points="644.3695 160.595 654.2545 160.595 654.2545 161.39 644.3695 161.39 644.3695 170.646 643.6225 170.646 643.6225 161.39 633.6135 161.39 633.6135 160.595 643.6225 160.595 643.6225 151.498 644.3695 151.498"></polygon>
            <polygon id="Fill-30" fill="#FFFFFF" points="802.0262 151.4979 802.0262 160.5949 792.0162 160.5949 792.0162 161.3909 802.0262 161.3909 802.0262 170.6459 802.7732 170.6459 802.7732 161.3909 812.6582 161.3909 812.6582 160.5949 802.7732 160.5949 802.7732 151.4979"></polygon>
            <polygon id="Fill-31" fill="#FFFFFF" points="644.3695 312.0935 654.2545 312.0935 654.2545 312.8885 644.3695 312.8885 644.3695 322.1445 643.6225 322.1445 643.6225 312.8885 633.6135 312.8885 633.6135 312.0935 643.6225 312.0935 643.6225 302.9965 644.3695 302.9965"></polygon>
            <polygon id="Fill-32" fill="#FFFFFF" points="802.0262 302.9967 802.0262 312.0937 792.0162 312.0937 792.0162 312.8887 802.0262 312.8887 802.0262 322.1447 802.7732 322.1447 802.7732 312.8887 812.6582 312.8887 812.6582 312.0937 802.7732 312.0937 802.7732 302.9967"></polygon>
            <polygon id="Stroke-33" stroke="#FFFFFF" stroke-width="0.051" points="644.0782 312.5704 802.4662 312.5704 802.4662 161.0714 644.0782 161.0714"></polygon>
            <polygon id="Fill-34" fill="#FFFFFF" points="485.9662 160.595 495.8512 160.595 495.8512 161.39 485.9662 161.39 485.9662 170.646 485.2192 170.646 485.2192 161.39 475.2102 161.39 475.2102 160.595 485.2192 160.595 485.2192 151.498 485.9662 151.498"></polygon>
            <polygon id="Fill-35" fill="#FFFFFF" points="644.3695 160.595 654.2545 160.595 654.2545 161.39 644.3695 161.39 644.3695 170.646 643.6225 170.646 643.6225 161.39 633.6135 161.39 633.6135 160.595 643.6225 160.595 643.6225 151.498 644.3695 151.498"></polygon>
            <polygon id="Fill-36" fill="#FFFFFF" points="485.9662 312.0935 495.8512 312.0935 495.8512 312.8885 485.9662 312.8885 485.9662 322.1445 485.2192 322.1445 485.2192 312.8885 475.2102 312.8885 475.2102 312.0935 485.2192 312.0935 485.2192 302.9965 485.9662 302.9965"></polygon>
            <polygon id="Fill-37" fill="#FFFFFF" points="644.3695 312.0935 654.2545 312.0935 654.2545 312.8885 644.3695 312.8885 644.3695 322.1445 643.6225 322.1445 643.6225 312.8885 633.6135 312.8885 633.6135 312.0935 643.6225 312.0935 643.6225 302.9965 644.3695 302.9965"></polygon>
            <polygon id="Stroke-38" stroke="#FFFFFF" stroke-width="0.051" points="485.6762 312.5704 644.0642 312.5704 644.0642 161.0714 485.6762 161.0714"></polygon>
            <polygon id="Fill-39" fill="#FFFFFF" points="327.5629 160.595 337.4479 160.595 337.4479 161.39 327.5629 161.39 327.5629 170.646 326.8159 170.646 326.8159 161.39 316.8069 161.39 316.8069 160.595 326.8159 160.595 326.8159 151.498 327.5629 151.498"></polygon>
            <polygon id="Fill-40" fill="#FFFFFF" points="485.9662 160.595 495.8512 160.595 495.8512 161.39 485.9662 161.39 485.9662 170.646 485.2192 170.646 485.2192 161.39 475.2102 161.39 475.2102 160.595 485.2192 160.595 485.2192 151.498 485.9662 151.498"></polygon>
            <polygon id="Fill-41" fill="#FFFFFF" points="327.5629 312.0935 337.4479 312.0935 337.4479 312.8885 327.5629 312.8885 327.5629 322.1445 326.8159 322.1445 326.8159 312.8885 316.8069 312.8885 316.8069 312.0935 326.8159 312.0935 326.8159 302.9965 327.5629 302.9965"></polygon>
            <polygon id="Fill-42" fill="#FFFFFF" points="485.9662 312.0935 495.8512 312.0935 495.8512 312.8885 485.9662 312.8885 485.9662 322.1445 485.2192 322.1445 485.2192 312.8885 475.2102 312.8885 475.2102 312.0935 485.2192 312.0935 485.2192 302.9965 485.9662 302.9965"></polygon>
            <polygon id="Stroke-43" stroke="#FFFFFF" stroke-width="0.051" points="327.2722 312.5704 485.6602 312.5704 485.6602 161.0714 327.2722 161.0714"></polygon>
            <polygon id="Fill-44" fill="#FFFFFF" points="169.1596 160.595 179.0446 160.595 179.0446 161.39 169.1596 161.39 169.1596 170.646 168.4126 170.646 168.4126 161.39 158.4036 161.39 158.4036 160.595 168.4126 160.595 168.4126 151.498 169.1596 151.498"></polygon>
            <polygon id="Fill-45" fill="#FFFFFF" points="327.5629 160.595 337.4479 160.595 337.4479 161.39 327.5629 161.39 327.5629 170.646 326.8159 170.646 326.8159 161.39 316.8069 161.39 316.8069 160.595 326.8159 160.595 326.8159 151.498 327.5629 151.498"></polygon>
            <polygon id="Fill-46" fill="#FFFFFF" points="169.1596 312.0935 179.0446 312.0935 179.0446 312.8885 169.1596 312.8885 169.1596 322.1445 168.4126 322.1445 168.4126 312.8885 158.4036 312.8885 158.4036 312.0935 168.4126 312.0935 168.4126 302.9965 169.1596 302.9965"></polygon>
            <polygon id="Fill-47" fill="#FFFFFF" points="327.5629 312.0935 337.4479 312.0935 337.4479 312.8885 327.5629 312.8885 327.5629 322.1445 326.8159 322.1445 326.8159 312.8885 316.8069 312.8885 316.8069 312.0935 326.8159 312.0935 326.8159 302.9965 327.5629 302.9965"></polygon>
            <polygon id="Stroke-48" stroke="#FFFFFF" stroke-width="0.051" points="168.8692 312.5704 327.2572 312.5704 327.2572 161.0714 168.8692 161.0714"></polygon>
            <polygon id="Fill-49" fill="#FFFFFF" points="10.01 151.4979 10.01 160.5949 7.10542736e-15 160.5949 7.10542736e-15 161.3909 10.01 161.3909 10.01 170.6459 10.756 170.6459 10.756 161.3909 20.642 161.3909 20.642 160.5949 10.756 160.5949 10.756 151.4979"></polygon>
            <polygon id="Fill-50" fill="#FFFFFF" points="169.1596 160.595 179.0446 160.595 179.0446 161.39 169.1596 161.39 169.1596 170.646 168.4126 170.646 168.4126 161.39 158.4036 161.39 158.4036 160.595 168.4126 160.595 168.4126 151.498 169.1596 151.498"></polygon>
            <polygon id="Fill-51" fill="#FFFFFF" points="10.01 302.9967 10.01 312.0937 7.10542736e-15 312.0937 7.10542736e-15 312.8887 10.01 312.8887 10.01 322.1447 10.756 322.1447 10.756 312.8887 20.642 312.8887 20.642 312.0937 10.756 312.0937 10.756 302.9967"></polygon>
            <polygon id="Fill-52" fill="#FFFFFF" points="169.1596 312.0935 179.0446 312.0935 179.0446 312.8885 169.1596 312.8885 169.1596 322.1445 168.4126 322.1445 168.4126 312.8885 158.4036 312.8885 158.4036 312.0935 168.4126 312.0935 168.4126 302.9965 169.1596 302.9965"></polygon>
            <polygon id="Stroke-53" stroke="#FFFFFF" stroke-width="0.051" points="10.4662 312.5704 168.8542 312.5704 168.8542 161.0714 10.4662 161.0714"></polygon>
            <polygon id="Fill-54" fill="#FFFFFF" points="10.01 151.4979 10.01 160.5949 7.10542736e-15 160.5949 7.10542736e-15 161.3909 10.01 161.3909 10.01 170.6459 10.756 170.6459 10.756 161.3909 20.642 161.3909 20.642 160.5949 10.756 160.5949 10.756 151.4979"></polygon>
            <polygon id="Fill-55" fill="#FFFFFF" points="10.01 302.9967 10.01 312.0937 7.10542736e-15 312.0937 7.10542736e-15 312.8887 10.01 312.8887 10.01 322.1447 10.756 322.1447 10.756 312.8887 20.642 312.8887 20.642 312.0937 10.756 312.0937 10.756 302.9967"></polygon>
            <line x1="10.4506" y1="161.072" x2="10.4506" y2="312.571" id="Stroke-56" stroke="#FFFFFF" stroke-width="0.051"></line>
            <polygon id="Fill-57" fill="#FFFFFF" points="644.3695 312.0935 654.2545 312.0935 654.2545 312.8885 644.3695 312.8885 644.3695 322.1445 643.6225 322.1445 643.6225 312.8885 633.6135 312.8885 633.6135 312.0935 643.6225 312.0935 643.6225 302.9965 644.3695 302.9965"></polygon>
            <polygon id="Fill-58" fill="#FFFFFF" points="802.0262 302.9967 802.0262 312.0937 792.0162 312.0937 792.0162 312.8887 802.0262 312.8887 802.0262 322.1447 802.7732 322.1447 802.7732 312.8887 812.6582 312.8887 812.6582 312.0937 802.7732 312.0937 802.7732 302.9967"></polygon>
            <polygon id="Fill-59" fill="#FFFFFF" points="644.3695 463.592 654.2545 463.592 654.2545 464.387 644.3695 464.387 644.3695 473.643 643.6225 473.643 643.6225 464.387 633.6135 464.387 633.6135 463.592 643.6225 463.592 643.6225 454.495 644.3695 454.495"></polygon>
            <polygon id="Fill-60" fill="#FFFFFF" points="802.0262 454.4946 802.0262 463.5916 792.0162 463.5916 792.0162 464.3876 802.0262 464.3876 802.0262 473.6426 802.7732 473.6426 802.7732 464.3876 812.6582 464.3876 812.6582 463.5916 802.7732 463.5916 802.7732 454.4946"></polygon>
            <polygon id="Stroke-61" stroke="#FFFFFF" stroke-width="0.051" points="644.0782 464.0694 802.4662 464.0694 802.4662 312.5704 644.0782 312.5704"></polygon>
            <polygon id="Fill-62" fill="#FFFFFF" points="485.9662 312.0935 495.8512 312.0935 495.8512 312.8885 485.9662 312.8885 485.9662 322.1445 485.2192 322.1445 485.2192 312.8885 475.2102 312.8885 475.2102 312.0935 485.2192 312.0935 485.2192 302.9965 485.9662 302.9965"></polygon>
            <polygon id="Fill-63" fill="#FFFFFF" points="644.3695 312.0935 654.2545 312.0935 654.2545 312.8885 644.3695 312.8885 644.3695 322.1445 643.6225 322.1445 643.6225 312.8885 633.6135 312.8885 633.6135 312.0935 643.6225 312.0935 643.6225 302.9965 644.3695 302.9965"></polygon>
            <polygon id="Fill-64" fill="#FFFFFF" points="485.9662 463.592 495.8512 463.592 495.8512 464.387 485.9662 464.387 485.9662 473.643 485.2192 473.643 485.2192 464.387 475.2102 464.387 475.2102 463.592 485.2192 463.592 485.2192 454.495 485.9662 454.495"></polygon>
            <polygon id="Fill-65" fill="#FFFFFF" points="644.3695 463.592 654.2545 463.592 654.2545 464.387 644.3695 464.387 644.3695 473.643 643.6225 473.643 643.6225 464.387 633.6135 464.387 633.6135 463.592 643.6225 463.592 643.6225 454.495 644.3695 454.495"></polygon>
            <polygon id="Stroke-66" stroke="#FFFFFF" stroke-width="0.051" points="485.6762 464.0694 644.0642 464.0694 644.0642 312.5704 485.6762 312.5704"></polygon>
            <polygon id="Fill-67" fill="#FFFFFF" points="327.5629 312.0935 337.4479 312.0935 337.4479 312.8885 327.5629 312.8885 327.5629 322.1445 326.8159 322.1445 326.8159 312.8885 316.8069 312.8885 316.8069 312.0935 326.8159 312.0935 326.8159 302.9965 327.5629 302.9965"></polygon>
            <polygon id="Fill-68" fill="#FFFFFF" points="485.9662 312.0935 495.8512 312.0935 495.8512 312.8885 485.9662 312.8885 485.9662 322.1445 485.2192 322.1445 485.2192 312.8885 475.2102 312.8885 475.2102 312.0935 485.2192 312.0935 485.2192 302.9965 485.9662 302.9965"></polygon>
            <polygon id="Fill-69" fill="#FFFFFF" points="327.5629 463.592 337.4479 463.592 337.4479 464.387 327.5629 464.387 327.5629 473.643 326.8159 473.643 326.8159 464.387 316.8069 464.387 316.8069 463.592 326.8159 463.592 326.8159 454.495 327.5629 454.495"></polygon>
            <polygon id="Fill-70" fill="#FFFFFF" points="485.9662 463.592 495.8512 463.592 495.8512 464.387 485.9662 464.387 485.9662 473.643 485.2192 473.643 485.2192 464.387 475.2102 464.387 475.2102 463.592 485.2192 463.592 485.2192 454.495 485.9662 454.495"></polygon>
            <polygon id="Stroke-71" stroke="#FFFFFF" stroke-width="0.051" points="327.2722 464.0694 485.6602 464.0694 485.6602 312.5704 327.2722 312.5704"></polygon>
            <polygon id="Fill-72" fill="#FFFFFF" points="169.1596 312.0935 179.0446 312.0935 179.0446 312.8885 169.1596 312.8885 169.1596 322.1445 168.4126 322.1445 168.4126 312.8885 158.4036 312.8885 158.4036 312.0935 168.4126 312.0935 168.4126 302.9965 169.1596 302.9965"></polygon>
            <polygon id="Fill-73" fill="#FFFFFF" points="327.5629 312.0935 337.4479 312.0935 337.4479 312.8885 327.5629 312.8885 327.5629 322.1445 326.8159 322.1445 326.8159 312.8885 316.8069 312.8885 316.8069 312.0935 326.8159 312.0935 326.8159 302.9965 327.5629 302.9965"></polygon>
            <polygon id="Fill-74" fill="#FFFFFF" points="169.1596 463.592 179.0446 463.592 179.0446 464.387 169.1596 464.387 169.1596 473.643 168.4126 473.643 168.4126 464.387 158.4036 464.387 158.4036 463.592 168.4126 463.592 168.4126 454.495 169.1596 454.495"></polygon>
            <polygon id="Fill-75" fill="#FFFFFF" points="327.5629 463.592 337.4479 463.592 337.4479 464.387 327.5629 464.387 327.5629 473.643 326.8159 473.643 326.8159 464.387 316.8069 464.387 316.8069 463.592 326.8159 463.592 326.8159 454.495 327.5629 454.495"></polygon>
            <polygon id="Stroke-76" stroke="#FFFFFF" stroke-width="0.051" points="168.8692 464.0694 327.2572 464.0694 327.2572 312.5704 168.8692 312.5704"></polygon>
            <polygon id="Fill-77" fill="#FFFFFF" points="10.01 302.9967 10.01 312.0937 7.10542736e-15 312.0937 7.10542736e-15 312.8887 10.01 312.8887 10.01 322.1447 10.756 322.1447 10.756 312.8887 20.642 312.8887 20.642 312.0937 10.756 312.0937 10.756 302.9967"></polygon>
            <polygon id="Fill-78" fill="#FFFFFF" points="169.1596 312.0935 179.0446 312.0935 179.0446 312.8885 169.1596 312.8885 169.1596 322.1445 168.4126 322.1445 168.4126 312.8885 158.4036 312.8885 158.4036 312.0935 168.4126 312.0935 168.4126 302.9965 169.1596 302.9965"></polygon>
            <polygon id="Fill-79" fill="#FFFFFF" points="10.01 454.4946 10.01 463.5916 7.10542736e-15 463.5916 7.10542736e-15 464.3876 10.01 464.3876 10.01 473.6426 10.756 473.6426 10.756 464.3876 20.642 464.3876 20.642 463.5916 10.756 463.5916 10.756 454.4946"></polygon>
            <polygon id="Fill-80" fill="#FFFFFF" points="169.1596 463.592 179.0446 463.592 179.0446 464.387 169.1596 464.387 169.1596 473.643 168.4126 473.643 168.4126 464.387 158.4036 464.387 158.4036 463.592 168.4126 463.592 168.4126 454.495 169.1596 454.495"></polygon>
            <polygon id="Stroke-81" stroke="#FFFFFF" stroke-width="0.051" points="10.4662 464.0694 168.8542 464.0694 168.8542 312.5704 10.4662 312.5704"></polygon>
            <polygon id="Fill-82" fill="#FFFFFF" points="10.01 302.9967 10.01 312.0937 7.10542736e-15 312.0937 7.10542736e-15 312.8887 10.01 312.8887 10.01 322.1447 10.756 322.1447 10.756 312.8887 20.642 312.8887 20.642 312.0937 10.756 312.0937 10.756 302.9967"></polygon>
            <polygon id="Fill-83" fill="#FFFFFF" points="10.01 454.4946 10.01 463.5916 7.10542736e-15 463.5916 7.10542736e-15 464.3876 10.01 464.3876 10.01 473.6426 10.756 473.6426 10.756 464.3876 20.642 464.3876 20.642 463.5916 10.756 463.5916 10.756 454.4946"></polygon>
            <line x1="10.4506" y1="312.5705" x2="10.4506" y2="464.0695" id="Stroke-84" stroke="#FFFFFF" stroke-width="0.051"></line>
            <polygon id="Fill-85" fill="#FFFFFF" points="644.3695 463.592 654.2545 463.592 654.2545 464.387 644.3695 464.387 644.3695 473.643 643.6225 473.643 643.6225 464.387 633.6135 464.387 633.6135 463.592 643.6225 463.592 643.6225 454.495 644.3695 454.495"></polygon>
            <polygon id="Fill-86" fill="#FFFFFF" points="802.0262 454.4946 802.0262 463.5916 792.0162 463.5916 792.0162 464.3876 802.0262 464.3876 802.0262 473.6426 802.7732 473.6426 802.7732 464.3876 812.6582 464.3876 812.6582 463.5916 802.7732 463.5916 802.7732 454.4946"></polygon>
            <polygon id="Fill-87" fill="#FFFFFF" points="644.3695 615.0906 654.2545 615.0906 654.2545 615.8856 644.3695 615.8856 644.3695 625.1416 643.6225 625.1416 643.6225 615.8856 633.6135 615.8856 633.6135 615.0906 643.6225 615.0906 643.6225 605.9936 644.3695 605.9936"></polygon>
            <polygon id="Fill-88" fill="#FFFFFF" points="802.0262 605.9934 802.0262 615.0904 792.0162 615.0904 792.0162 615.8854 802.0262 615.8854 802.0262 625.1414 802.7732 625.1414 802.7732 615.8854 812.6582 615.8854 812.6582 615.0904 802.7732 615.0904 802.7732 605.9934"></polygon>
            <polygon id="Stroke-89" stroke="#FFFFFF" stroke-width="0.051" points="644.0782 615.5674 802.4662 615.5674 802.4662 464.0694 644.0782 464.0694"></polygon>
            <polygon id="Fill-90" fill="#FFFFFF" points="485.9662 463.592 495.8512 463.592 495.8512 464.387 485.9662 464.387 485.9662 473.643 485.2192 473.643 485.2192 464.387 475.2102 464.387 475.2102 463.592 485.2192 463.592 485.2192 454.495 485.9662 454.495"></polygon>
            <polygon id="Fill-91" fill="#FFFFFF" points="644.3695 463.592 654.2545 463.592 654.2545 464.387 644.3695 464.387 644.3695 473.643 643.6225 473.643 643.6225 464.387 633.6135 464.387 633.6135 463.592 643.6225 463.592 643.6225 454.495 644.3695 454.495"></polygon>
            <polygon id="Fill-92" fill="#FFFFFF" points="485.9662 615.0906 495.8512 615.0906 495.8512 615.8856 485.9662 615.8856 485.9662 625.1416 485.2192 625.1416 485.2192 615.8856 475.2102 615.8856 475.2102 615.0906 485.2192 615.0906 485.2192 605.9936 485.9662 605.9936"></polygon>
            <polygon id="Fill-93" fill="#FFFFFF" points="644.3695 615.0906 654.2545 615.0906 654.2545 615.8856 644.3695 615.8856 644.3695 625.1416 643.6225 625.1416 643.6225 615.8856 633.6135 615.8856 633.6135 615.0906 643.6225 615.0906 643.6225 605.9936 644.3695 605.9936"></polygon>
            <polygon id="Stroke-94" stroke="#FFFFFF" stroke-width="0.051" points="485.6762 615.5674 644.0642 615.5674 644.0642 464.0694 485.6762 464.0694"></polygon>
            <polygon id="Fill-95" fill="#FFFFFF" points="327.5629 463.592 337.4479 463.592 337.4479 464.387 327.5629 464.387 327.5629 473.643 326.8159 473.643 326.8159 464.387 316.8069 464.387 316.8069 463.592 326.8159 463.592 326.8159 454.495 327.5629 454.495"></polygon>
            <polygon id="Fill-96" fill="#FFFFFF" points="485.9662 463.592 495.8512 463.592 495.8512 464.387 485.9662 464.387 485.9662 473.643 485.2192 473.643 485.2192 464.387 475.2102 464.387 475.2102 463.592 485.2192 463.592 485.2192 454.495 485.9662 454.495"></polygon>
            <polygon id="Fill-97" fill="#FFFFFF" points="327.5629 615.0906 337.4479 615.0906 337.4479 615.8856 327.5629 615.8856 327.5629 625.1416 326.8159 625.1416 326.8159 615.8856 316.8069 615.8856 316.8069 615.0906 326.8159 615.0906 326.8159 605.9936 327.5629 605.9936"></polygon>
            <polygon id="Fill-98" fill="#FFFFFF" points="485.9662 615.0906 495.8512 615.0906 495.8512 615.8856 485.9662 615.8856 485.9662 625.1416 485.2192 625.1416 485.2192 615.8856 475.2102 615.8856 475.2102 615.0906 485.2192 615.0906 485.2192 605.9936 485.9662 605.9936"></polygon>
            <polygon id="Stroke-99" stroke="#FFFFFF" stroke-width="0.051" points="327.2722 615.5674 485.6602 615.5674 485.6602 464.0694 327.2722 464.0694"></polygon>
            <polygon id="Fill-100" fill="#FFFFFF" points="169.1596 463.592 179.0446 463.592 179.0446 464.387 169.1596 464.387 169.1596 473.643 168.4126 473.643 168.4126 464.387 158.4036 464.387 158.4036 463.592 168.4126 463.592 168.4126 454.495 169.1596 454.495"></polygon>
            <polygon id="Fill-101" fill="#FFFFFF" points="327.5629 463.592 337.4479 463.592 337.4479 464.387 327.5629 464.387 327.5629 473.643 326.8159 473.643 326.8159 464.387 316.8069 464.387 316.8069 463.592 326.8159 463.592 326.8159 454.495 327.5629 454.495"></polygon>
            <polygon id="Fill-102" fill="#FFFFFF" points="169.1596 615.0906 179.0446 615.0906 179.0446 615.8856 169.1596 615.8856 169.1596 625.1416 168.4126 625.1416 168.4126 615.8856 158.4036 615.8856 158.4036 615.0906 168.4126 615.0906 168.4126 605.9936 169.1596 605.9936"></polygon>
            <polygon id="Fill-103" fill="#FFFFFF" points="327.5629 615.0906 337.4479 615.0906 337.4479 615.8856 327.5629 615.8856 327.5629 625.1416 326.8159 625.1416 326.8159 615.8856 316.8069 615.8856 316.8069 615.0906 326.8159 615.0906 326.8159 605.9936 327.5629 605.9936"></polygon>
            <polygon id="Stroke-104" stroke="#FFFFFF" stroke-width="0.051" points="168.8692 615.5674 327.2572 615.5674 327.2572 464.0694 168.8692 464.0694"></polygon>
            <polygon id="Fill-105" fill="#FFFFFF" points="10.01 454.4946 10.01 463.5916 7.10542736e-15 463.5916 7.10542736e-15 464.3876 10.01 464.3876 10.01 473.6426 10.756 473.6426 10.756 464.3876 20.642 464.3876 20.642 463.5916 10.756 463.5916 10.756 454.4946"></polygon>
            <polygon id="Fill-106" fill="#FFFFFF" points="169.1596 463.592 179.0446 463.592 179.0446 464.387 169.1596 464.387 169.1596 473.643 168.4126 473.643 168.4126 464.387 158.4036 464.387 158.4036 463.592 168.4126 463.592 168.4126 454.495 169.1596 454.495"></polygon>
            <polygon id="Fill-107" fill="#FFFFFF" points="10.01 605.9934 10.01 615.0904 7.10542736e-15 615.0904 7.10542736e-15 615.8854 10.01 615.8854 10.01 625.1414 10.756 625.1414 10.756 615.8854 20.642 615.8854 20.642 615.0904 10.756 615.0904 10.756 605.9934"></polygon>
            <polygon id="Fill-108" fill="#FFFFFF" points="169.1596 615.0906 179.0446 615.0906 179.0446 615.8856 169.1596 615.8856 169.1596 625.1416 168.4126 625.1416 168.4126 615.8856 158.4036 615.8856 158.4036 615.0906 168.4126 615.0906 168.4126 605.9936 169.1596 605.9936"></polygon>
            <polygon id="Stroke-109" stroke="#FFFFFF" stroke-width="0.051" points="10.4662 615.5674 168.8542 615.5674 168.8542 464.0694 10.4662 464.0694"></polygon>
            <polygon id="Fill-110" fill="#FFFFFF" points="10.01 454.4946 10.01 463.5916 7.10542736e-15 463.5916 7.10542736e-15 464.3876 10.01 464.3876 10.01 473.6426 10.756 473.6426 10.756 464.3876 20.642 464.3876 20.642 463.5916 10.756 463.5916 10.756 454.4946"></polygon>
            <polygon id="Fill-111" fill="#FFFFFF" points="10.01 605.9934 10.01 615.0904 7.10542736e-15 615.0904 7.10542736e-15 615.8854 10.01 615.8854 10.01 625.1414 10.756 625.1414 10.756 615.8854 20.642 615.8854 20.642 615.0904 10.756 615.0904 10.756 605.9934"></polygon>
            <line x1="10.4506" y1="464.0691" x2="10.4506" y2="615.5671" id="Stroke-112" stroke="#FFFFFF" stroke-width="0.051"></line>
            <polygon id="Fill-113" fill="#FFFFFF" points="644.3695 615.0906 654.2545 615.0906 654.2545 615.8856 644.3695 615.8856 644.3695 625.1416 643.6225 625.1416 643.6225 615.8856 633.6135 615.8856 633.6135 615.0906 643.6225 615.0906 643.6225 605.9936 644.3695 605.9936"></polygon>
            <polygon id="Fill-114" fill="#FFFFFF" points="802.0262 605.9934 802.0262 615.0904 792.0162 615.0904 792.0162 615.8854 802.0262 615.8854 802.0262 625.1414 802.7732 625.1414 802.7732 615.8854 812.6582 615.8854 812.6582 615.0904 802.7732 615.0904 802.7732 605.9934"></polygon>
            <polygon id="Fill-115" fill="#FFFFFF" points="644.3695 766.5886 654.2545 766.5886 654.2545 767.3836 644.3695 767.3836 644.3695 776.6396 643.6225 776.6396 643.6225 767.3836 633.6135 767.3836 633.6135 766.5886 643.6225 766.5886 643.6225 757.4916 644.3695 757.4916"></polygon>
            <polygon id="Fill-116" fill="#FFFFFF" points="802.0262 757.4922 802.0262 766.5882 792.0162 766.5882 792.0162 767.3842 802.0262 767.3842 802.0262 776.6392 802.7732 776.6392 802.7732 767.3842 812.6582 767.3842 812.6582 766.5882 802.7732 766.5882 802.7732 757.4922"></polygon>
            <polygon id="Stroke-117" stroke="#FFFFFF" stroke-width="0.051" points="644.0782 767.0654 802.4662 767.0654 802.4662 615.5664 644.0782 615.5664"></polygon>
            <polygon id="Fill-118" fill="#FFFFFF" points="485.9662 615.0906 495.8512 615.0906 495.8512 615.8856 485.9662 615.8856 485.9662 625.1416 485.2192 625.1416 485.2192 615.8856 475.2102 615.8856 475.2102 615.0906 485.2192 615.0906 485.2192 605.9936 485.9662 605.9936"></polygon>
            <polygon id="Fill-119" fill="#FFFFFF" points="644.3695 615.0906 654.2545 615.0906 654.2545 615.8856 644.3695 615.8856 644.3695 625.1416 643.6225 625.1416 643.6225 615.8856 633.6135 615.8856 633.6135 615.0906 643.6225 615.0906 643.6225 605.9936 644.3695 605.9936"></polygon>
            <polygon id="Fill-120" fill="#FFFFFF" points="485.9662 766.5886 495.8512 766.5886 495.8512 767.3836 485.9662 767.3836 485.9662 776.6396 485.2192 776.6396 485.2192 767.3836 475.2102 767.3836 475.2102 766.5886 485.2192 766.5886 485.2192 757.4916 485.9662 757.4916"></polygon>
            <polygon id="Fill-121" fill="#FFFFFF" points="644.3695 766.5886 654.2545 766.5886 654.2545 767.3836 644.3695 767.3836 644.3695 776.6396 643.6225 776.6396 643.6225 767.3836 633.6135 767.3836 633.6135 766.5886 643.6225 766.5886 643.6225 757.4916 644.3695 757.4916"></polygon>
            <polygon id="Stroke-122" stroke="#FFFFFF" stroke-width="0.051" points="485.6762 767.0654 644.0642 767.0654 644.0642 615.5664 485.6762 615.5664"></polygon>
            <polygon id="Fill-123" fill="#FFFFFF" points="327.5629 615.0906 337.4479 615.0906 337.4479 615.8856 327.5629 615.8856 327.5629 625.1416 326.8159 625.1416 326.8159 615.8856 316.8069 615.8856 316.8069 615.0906 326.8159 615.0906 326.8159 605.9936 327.5629 605.9936"></polygon>
            <polygon id="Fill-124" fill="#FFFFFF" points="485.9662 615.0906 495.8512 615.0906 495.8512 615.8856 485.9662 615.8856 485.9662 625.1416 485.2192 625.1416 485.2192 615.8856 475.2102 615.8856 475.2102 615.0906 485.2192 615.0906 485.2192 605.9936 485.9662 605.9936"></polygon>
            <polygon id="Fill-125" fill="#FFFFFF" points="327.5629 766.5886 337.4479 766.5886 337.4479 767.3836 327.5629 767.3836 327.5629 776.6396 326.8159 776.6396 326.8159 767.3836 316.8069 767.3836 316.8069 766.5886 326.8159 766.5886 326.8159 757.4916 327.5629 757.4916"></polygon>
            <polygon id="Fill-126" fill="#FFFFFF" points="485.9662 766.5886 495.8512 766.5886 495.8512 767.3836 485.9662 767.3836 485.9662 776.6396 485.2192 776.6396 485.2192 767.3836 475.2102 767.3836 475.2102 766.5886 485.2192 766.5886 485.2192 757.4916 485.9662 757.4916"></polygon>
            <polygon id="Stroke-127" stroke="#FFFFFF" stroke-width="0.051" points="327.2722 767.0654 485.6602 767.0654 485.6602 615.5664 327.2722 615.5664"></polygon>
            <polygon id="Fill-128" fill="#FFFFFF" points="169.1596 615.0906 179.0446 615.0906 179.0446 615.8856 169.1596 615.8856 169.1596 625.1416 168.4126 625.1416 168.4126 615.8856 158.4036 615.8856 158.4036 615.0906 168.4126 615.0906 168.4126 605.9936 169.1596 605.9936"></polygon>
            <polygon id="Fill-129" fill="#FFFFFF" points="327.5629 615.0906 337.4479 615.0906 337.4479 615.8856 327.5629 615.8856 327.5629 625.1416 326.8159 625.1416 326.8159 615.8856 316.8069 615.8856 316.8069 615.0906 326.8159 615.0906 326.8159 605.9936 327.5629 605.9936"></polygon>
            <polygon id="Fill-130" fill="#FFFFFF" points="169.1596 766.5886 179.0446 766.5886 179.0446 767.3836 169.1596 767.3836 169.1596 776.6396 168.4126 776.6396 168.4126 767.3836 158.4036 767.3836 158.4036 766.5886 168.4126 766.5886 168.4126 757.4916 169.1596 757.4916"></polygon>
            <polygon id="Fill-131" fill="#FFFFFF" points="327.5629 766.5886 337.4479 766.5886 337.4479 767.3836 327.5629 767.3836 327.5629 776.6396 326.8159 776.6396 326.8159 767.3836 316.8069 767.3836 316.8069 766.5886 326.8159 766.5886 326.8159 757.4916 327.5629 757.4916"></polygon>
            <polygon id="Stroke-132" stroke="#FFFFFF" stroke-width="0.051" points="168.8692 767.0654 327.2572 767.0654 327.2572 615.5664 168.8692 615.5664"></polygon>
            <polygon id="Fill-133" fill="#FFFFFF" points="10.01 605.9934 10.01 615.0904 7.10542736e-15 615.0904 7.10542736e-15 615.8854 10.01 615.8854 10.01 625.1414 10.756 625.1414 10.756 615.8854 20.642 615.8854 20.642 615.0904 10.756 615.0904 10.756 605.9934"></polygon>
            <polygon id="Fill-134" fill="#FFFFFF" points="169.1596 615.0906 179.0446 615.0906 179.0446 615.8856 169.1596 615.8856 169.1596 625.1416 168.4126 625.1416 168.4126 615.8856 158.4036 615.8856 158.4036 615.0906 168.4126 615.0906 168.4126 605.9936 169.1596 605.9936"></polygon>
            <polygon id="Fill-135" fill="#FFFFFF" points="10.01 757.4922 10.01 766.5882 7.10542736e-15 766.5882 7.10542736e-15 767.3842 10.01 767.3842 10.01 776.6392 10.756 776.6392 10.756 767.3842 20.642 767.3842 20.642 766.5882 10.756 766.5882 10.756 757.4922"></polygon>
            <polygon id="Fill-136" fill="#FFFFFF" points="169.1596 766.5886 179.0446 766.5886 179.0446 767.3836 169.1596 767.3836 169.1596 776.6396 168.4126 776.6396 168.4126 767.3836 158.4036 767.3836 158.4036 766.5886 168.4126 766.5886 168.4126 757.4916 169.1596 757.4916"></polygon>
            <polygon id="Stroke-137" stroke="#FFFFFF" stroke-width="0.051" points="10.4662 767.0654 168.8542 767.0654 168.8542 615.5664 10.4662 615.5664"></polygon>
            <polygon id="Fill-138" fill="#FFFFFF" points="10.01 605.9934 10.01 615.0904 7.10542736e-15 615.0904 7.10542736e-15 615.8854 10.01 615.8854 10.01 625.1414 10.756 625.1414 10.756 615.8854 20.642 615.8854 20.642 615.0904 10.756 615.0904 10.756 605.9934"></polygon>
            <polygon id="Fill-139" fill="#FFFFFF" points="10.01 757.4922 10.01 766.5882 7.10542736e-15 766.5882 7.10542736e-15 767.3842 10.01 767.3842 10.01 776.6392 10.756 776.6392 10.756 767.3842 20.642 767.3842 20.642 766.5882 10.756 766.5882 10.756 757.4922"></polygon>
            <line x1="10.4506" y1="615.5671" x2="10.4506" y2="767.0661" id="Stroke-140" stroke="#FFFFFF" stroke-width="0.051"></line>
            <polygon id="Fill-141" fill="#FFFFFF" points="644.3695 766.5886 654.2545 766.5886 654.2545 767.3836 644.3695 767.3836 644.3695 776.6396 643.6225 776.6396 643.6225 767.3836 633.6135 767.3836 633.6135 766.5886 643.6225 766.5886 643.6225 757.4916 644.3695 757.4916"></polygon>
            <polygon id="Fill-142" fill="#FFFFFF" points="802.0262 757.4922 802.0262 766.5882 792.0162 766.5882 792.0162 767.3842 802.0262 767.3842 802.0262 776.6392 802.7732 776.6392 802.7732 767.3842 812.6582 767.3842 812.6582 766.5882 802.7732 766.5882 802.7732 757.4922"></polygon>
            <polygon id="Fill-143" fill="#FFFFFF" points="644.3695 918.0872 654.2545 918.0872 654.2545 918.8822 644.3695 918.8822 644.3695 928.1382 643.6225 928.1382 643.6225 918.8822 633.6135 918.8822 633.6135 918.0872 643.6225 918.0872 643.6225 908.9902 644.3695 908.9902"></polygon>
            <polygon id="Fill-144" fill="#FFFFFF" points="802.0262 908.9901 802.0262 918.0871 792.0162 918.0871 792.0162 918.8831 802.0262 918.8831 802.0262 928.1381 802.7732 928.1381 802.7732 918.8831 812.6582 918.8831 812.6582 918.0871 802.7732 918.0871 802.7732 908.9901"></polygon>
            <polygon id="Stroke-145" stroke="#FFFFFF" stroke-width="0.051" points="644.0782 918.5644 802.4662 918.5644 802.4662 767.0654 644.0782 767.0654"></polygon>
            <polygon id="Fill-146" fill="#FFFFFF" points="485.9662 766.5886 495.8512 766.5886 495.8512 767.3836 485.9662 767.3836 485.9662 776.6396 485.2192 776.6396 485.2192 767.3836 475.2102 767.3836 475.2102 766.5886 485.2192 766.5886 485.2192 757.4916 485.9662 757.4916"></polygon>
            <polygon id="Fill-147" fill="#FFFFFF" points="644.3695 766.5886 654.2545 766.5886 654.2545 767.3836 644.3695 767.3836 644.3695 776.6396 643.6225 776.6396 643.6225 767.3836 633.6135 767.3836 633.6135 766.5886 643.6225 766.5886 643.6225 757.4916 644.3695 757.4916"></polygon>
            <polygon id="Fill-148" fill="#FFFFFF" points="485.9662 918.0872 495.8512 918.0872 495.8512 918.8822 485.9662 918.8822 485.9662 928.1382 485.2192 928.1382 485.2192 918.8822 475.2102 918.8822 475.2102 918.0872 485.2192 918.0872 485.2192 908.9902 485.9662 908.9902"></polygon>
            <polygon id="Fill-149" fill="#FFFFFF" points="644.3695 918.0872 654.2545 918.0872 654.2545 918.8822 644.3695 918.8822 644.3695 928.1382 643.6225 928.1382 643.6225 918.8822 633.6135 918.8822 633.6135 918.0872 643.6225 918.0872 643.6225 908.9902 644.3695 908.9902"></polygon>
            <polygon id="Stroke-150" stroke="#FFFFFF" stroke-width="0.051" points="485.6762 918.5644 644.0642 918.5644 644.0642 767.0654 485.6762 767.0654"></polygon>
            <polygon id="Fill-151" fill="#FFFFFF" points="327.5629 766.5886 337.4479 766.5886 337.4479 767.3836 327.5629 767.3836 327.5629 776.6396 326.8159 776.6396 326.8159 767.3836 316.8069 767.3836 316.8069 766.5886 326.8159 766.5886 326.8159 757.4916 327.5629 757.4916"></polygon>
            <polygon id="Fill-152" fill="#FFFFFF" points="485.9662 766.5886 495.8512 766.5886 495.8512 767.3836 485.9662 767.3836 485.9662 776.6396 485.2192 776.6396 485.2192 767.3836 475.2102 767.3836 475.2102 766.5886 485.2192 766.5886 485.2192 757.4916 485.9662 757.4916"></polygon>
            <polygon id="Fill-153" fill="#FFFFFF" points="327.5629 918.0872 337.4479 918.0872 337.4479 918.8822 327.5629 918.8822 327.5629 928.1382 326.8159 928.1382 326.8159 918.8822 316.8069 918.8822 316.8069 918.0872 326.8159 918.0872 326.8159 908.9902 327.5629 908.9902"></polygon>
            <polygon id="Fill-154" fill="#FFFFFF" points="485.9662 918.0872 495.8512 918.0872 495.8512 918.8822 485.9662 918.8822 485.9662 928.1382 485.2192 928.1382 485.2192 918.8822 475.2102 918.8822 475.2102 918.0872 485.2192 918.0872 485.2192 908.9902 485.9662 908.9902"></polygon>
            <polygon id="Stroke-155" stroke="#FFFFFF" stroke-width="0.051" points="327.2722 918.5644 485.6602 918.5644 485.6602 767.0654 327.2722 767.0654"></polygon>
            <polygon id="Fill-156" fill="#FFFFFF" points="169.1596 766.5886 179.0446 766.5886 179.0446 767.3836 169.1596 767.3836 169.1596 776.6396 168.4126 776.6396 168.4126 767.3836 158.4036 767.3836 158.4036 766.5886 168.4126 766.5886 168.4126 757.4916 169.1596 757.4916"></polygon>
            <polygon id="Fill-157" fill="#FFFFFF" points="327.5629 766.5886 337.4479 766.5886 337.4479 767.3836 327.5629 767.3836 327.5629 776.6396 326.8159 776.6396 326.8159 767.3836 316.8069 767.3836 316.8069 766.5886 326.8159 766.5886 326.8159 757.4916 327.5629 757.4916"></polygon>
            <polygon id="Fill-158" fill="#FFFFFF" points="169.1596 918.0872 179.0446 918.0872 179.0446 918.8822 169.1596 918.8822 169.1596 928.1382 168.4126 928.1382 168.4126 918.8822 158.4036 918.8822 158.4036 918.0872 168.4126 918.0872 168.4126 908.9902 169.1596 908.9902"></polygon>
            <polygon id="Fill-159" fill="#FFFFFF" points="327.5629 918.0872 337.4479 918.0872 337.4479 918.8822 327.5629 918.8822 327.5629 928.1382 326.8159 928.1382 326.8159 918.8822 316.8069 918.8822 316.8069 918.0872 326.8159 918.0872 326.8159 908.9902 327.5629 908.9902"></polygon>
            <polygon id="Stroke-160" stroke="#FFFFFF" stroke-width="0.051" points="168.8692 918.5644 327.2572 918.5644 327.2572 767.0654 168.8692 767.0654"></polygon>
            <polygon id="Fill-161" fill="#FFFFFF" points="10.01 757.4922 10.01 766.5882 7.10542736e-15 766.5882 7.10542736e-15 767.3842 10.01 767.3842 10.01 776.6392 10.756 776.6392 10.756 767.3842 20.642 767.3842 20.642 766.5882 10.756 766.5882 10.756 757.4922"></polygon>
            <polygon id="Fill-162" fill="#FFFFFF" points="169.1596 766.5886 179.0446 766.5886 179.0446 767.3836 169.1596 767.3836 169.1596 776.6396 168.4126 776.6396 168.4126 767.3836 158.4036 767.3836 158.4036 766.5886 168.4126 766.5886 168.4126 757.4916 169.1596 757.4916"></polygon>
            <polygon id="Fill-163" fill="#FFFFFF" points="10.01 908.9901 10.01 918.0871 7.10542736e-15 918.0871 7.10542736e-15 918.8831 10.01 918.8831 10.01 928.1381 10.756 928.1381 10.756 918.8831 20.642 918.8831 20.642 918.0871 10.756 918.0871 10.756 908.9901"></polygon>
            <polygon id="Fill-164" fill="#FFFFFF" points="169.1596 918.0872 179.0446 918.0872 179.0446 918.8822 169.1596 918.8822 169.1596 928.1382 168.4126 928.1382 168.4126 918.8822 158.4036 918.8822 158.4036 918.0872 168.4126 918.0872 168.4126 908.9902 169.1596 908.9902"></polygon>
            <polygon id="Stroke-165" stroke="#FFFFFF" stroke-width="0.051" points="10.4662 918.5644 168.8542 918.5644 168.8542 767.0654 10.4662 767.0654"></polygon>
            <polygon id="Fill-166" fill="#FFFFFF" points="10.01 757.4922 10.01 766.5882 7.10542736e-15 766.5882 7.10542736e-15 767.3842 10.01 767.3842 10.01 776.6392 10.756 776.6392 10.756 767.3842 20.642 767.3842 20.642 766.5882 10.756 766.5882 10.756 757.4922"></polygon>
            <polygon id="Fill-167" fill="#FFFFFF" points="10.01 908.9901 10.01 918.0871 7.10542736e-15 918.0871 7.10542736e-15 918.8831 10.01 918.8831 10.01 928.1381 10.756 928.1381 10.756 918.8831 20.642 918.8831 20.642 918.0871 10.756 918.0871 10.756 908.9901"></polygon>
            <line x1="10.4506" y1="767.0657" x2="10.4506" y2="918.5647" id="Stroke-168" stroke="#FFFFFF" stroke-width="0.051"></line>
            <polygon id="Fill-169" fill="#FFFFFF" points="644.3695 918.0872 654.2545 918.0872 654.2545 918.8822 644.3695 918.8822 644.3695 928.1382 643.6225 928.1382 643.6225 918.8822 633.6135 918.8822 633.6135 918.0872 643.6225 918.0872 643.6225 908.9902 644.3695 908.9902"></polygon>
            <polygon id="Fill-170" fill="#FFFFFF" points="802.0262 908.9901 802.0262 918.0871 792.0162 918.0871 792.0162 918.8831 802.0262 918.8831 802.0262 928.1381 802.7732 928.1381 802.7732 918.8831 812.6582 918.8831 812.6582 918.0871 802.7732 918.0871 802.7732 908.9901"></polygon>
            <polygon id="Fill-171" fill="#FFFFFF" points="643.6226 1060.4889 643.6226 1069.5859 633.6126 1069.5859 633.6126 1070.3809 643.6226 1070.3809 643.6226 1079.6369 644.3696 1079.6369 644.3696 1070.3809 654.2556 1070.3809 654.2556 1069.5859 644.3696 1069.5859 644.3696 1060.4889"></polygon>
            <polygon id="Fill-172" fill="#FFFFFF" points="802.0262 1060.4889 802.0262 1069.5859 792.0162 1069.5859 792.0162 1070.3809 802.0262 1070.3809 802.0262 1079.6369 802.7732 1079.6369 802.7732 1070.3809 812.6582 1070.3809 812.6582 1069.5859 802.7732 1069.5859 802.7732 1060.4889"></polygon>
            <polygon id="Stroke-173" stroke="#FFFFFF" stroke-width="0.051" points="644.0782 1070.0624 802.4662 1070.0624 802.4662 918.5634 644.0782 918.5634"></polygon>
            <polygon id="Fill-174" fill="#FFFFFF" points="485.9662 918.0872 495.8512 918.0872 495.8512 918.8822 485.9662 918.8822 485.9662 928.1382 485.2192 928.1382 485.2192 918.8822 475.2102 918.8822 475.2102 918.0872 485.2192 918.0872 485.2192 908.9902 485.9662 908.9902"></polygon>
            <polygon id="Fill-175" fill="#FFFFFF" points="644.3695 918.0872 654.2545 918.0872 654.2545 918.8822 644.3695 918.8822 644.3695 928.1382 643.6225 928.1382 643.6225 918.8822 633.6135 918.8822 633.6135 918.0872 643.6225 918.0872 643.6225 908.9902 644.3695 908.9902"></polygon>
            <polygon id="Fill-176" fill="#FFFFFF" points="485.219 1060.4889 485.219 1069.5859 475.21 1069.5859 475.21 1070.3809 485.219 1070.3809 485.219 1079.6369 485.966 1079.6369 485.966 1070.3809 495.852 1070.3809 495.852 1069.5859 485.966 1069.5859 485.966 1060.4889"></polygon>
            <polygon id="Fill-177" fill="#FFFFFF" points="643.6226 1060.4889 643.6226 1069.5859 633.6126 1069.5859 633.6126 1070.3809 643.6226 1070.3809 643.6226 1079.6369 644.3696 1079.6369 644.3696 1070.3809 654.2556 1070.3809 654.2556 1069.5859 644.3696 1069.5859 644.3696 1060.4889"></polygon>
            <polygon id="Stroke-178" stroke="#FFFFFF" stroke-width="0.051" points="485.6762 1070.0624 644.0642 1070.0624 644.0642 918.5634 485.6762 918.5634"></polygon>
            <polygon id="Fill-179" fill="#FFFFFF" points="327.5629 918.0872 337.4479 918.0872 337.4479 918.8822 327.5629 918.8822 327.5629 928.1382 326.8159 928.1382 326.8159 918.8822 316.8069 918.8822 316.8069 918.0872 326.8159 918.0872 326.8159 908.9902 327.5629 908.9902"></polygon>
            <polygon id="Fill-180" fill="#FFFFFF" points="485.9662 918.0872 495.8512 918.0872 495.8512 918.8822 485.9662 918.8822 485.9662 928.1382 485.2192 928.1382 485.2192 918.8822 475.2102 918.8822 475.2102 918.0872 485.2192 918.0872 485.2192 908.9902 485.9662 908.9902"></polygon>
            <polygon id="Fill-181" fill="#FFFFFF" points="326.8163 1060.4889 326.8163 1069.5859 316.8063 1069.5859 316.8063 1070.3809 326.8163 1070.3809 326.8163 1079.6369 327.5633 1079.6369 327.5633 1070.3809 337.4483 1070.3809 337.4483 1069.5859 327.5633 1069.5859 327.5633 1060.4889"></polygon>
            <polygon id="Fill-182" fill="#FFFFFF" points="485.219 1060.4889 485.219 1069.5859 475.21 1069.5859 475.21 1070.3809 485.219 1070.3809 485.219 1079.6369 485.966 1079.6369 485.966 1070.3809 495.852 1070.3809 495.852 1069.5859 485.966 1069.5859 485.966 1060.4889"></polygon>
            <polygon id="Stroke-183" stroke="#FFFFFF" stroke-width="0.051" points="327.2722 1070.0624 485.6602 1070.0624 485.6602 918.5634 327.2722 918.5634"></polygon>
            <polygon id="Fill-184" fill="#FFFFFF" points="169.1596 918.0872 179.0446 918.0872 179.0446 918.8822 169.1596 918.8822 169.1596 928.1382 168.4126 928.1382 168.4126 918.8822 158.4036 918.8822 158.4036 918.0872 168.4126 918.0872 168.4126 908.9902 169.1596 908.9902"></polygon>
            <polygon id="Fill-185" fill="#FFFFFF" points="327.5629 918.0872 337.4479 918.0872 337.4479 918.8822 327.5629 918.8822 327.5629 928.1382 326.8159 928.1382 326.8159 918.8822 316.8069 918.8822 316.8069 918.0872 326.8159 918.0872 326.8159 908.9902 327.5629 908.9902"></polygon>
            <polygon id="Fill-186" fill="#FFFFFF" points="168.4127 1060.4889 168.4127 1069.5859 158.4037 1069.5859 158.4037 1070.3809 168.4127 1070.3809 168.4127 1079.6369 169.1597 1079.6369 169.1597 1070.3809 179.0447 1070.3809 179.0447 1069.5859 169.1597 1069.5859 169.1597 1060.4889"></polygon>
            <polygon id="Fill-187" fill="#FFFFFF" points="326.8163 1060.4889 326.8163 1069.5859 316.8063 1069.5859 316.8063 1070.3809 326.8163 1070.3809 326.8163 1079.6369 327.5633 1079.6369 327.5633 1070.3809 337.4483 1070.3809 337.4483 1069.5859 327.5633 1069.5859 327.5633 1060.4889"></polygon>
            <polygon id="Stroke-188" stroke="#FFFFFF" stroke-width="0.051" points="168.8692 1070.0624 327.2572 1070.0624 327.2572 918.5634 168.8692 918.5634"></polygon>
            <polygon id="Fill-189" fill="#FFFFFF" points="10.01 908.9901 10.01 918.0871 7.10542736e-15 918.0871 7.10542736e-15 918.8831 10.01 918.8831 10.01 928.1381 10.756 928.1381 10.756 918.8831 20.642 918.8831 20.642 918.0871 10.756 918.0871 10.756 908.9901"></polygon>
            <polygon id="Fill-190" fill="#FFFFFF" points="169.1596 918.0872 179.0446 918.0872 179.0446 918.8822 169.1596 918.8822 169.1596 928.1382 168.4126 928.1382 168.4126 918.8822 158.4036 918.8822 158.4036 918.0872 168.4126 918.0872 168.4126 908.9902 169.1596 908.9902"></polygon>
            <polygon id="Fill-191" fill="#FFFFFF" points="10.01 1060.4889 10.01 1069.5859 7.10542736e-15 1069.5859 7.10542736e-15 1070.3809 10.01 1070.3809 10.01 1079.6369 10.756 1079.6369 10.756 1070.3809 20.642 1070.3809 20.642 1069.5859 10.756 1069.5859 10.756 1060.4889"></polygon>
            <polygon id="Fill-192" fill="#FFFFFF" points="168.4127 1060.4889 168.4127 1069.5859 158.4037 1069.5859 158.4037 1070.3809 168.4127 1070.3809 168.4127 1079.6369 169.1597 1079.6369 169.1597 1070.3809 179.0447 1070.3809 179.0447 1069.5859 169.1597 1069.5859 169.1597 1060.4889"></polygon>
            <polygon id="Stroke-193" stroke="#FFFFFF" stroke-width="0.051" points="10.4662 1070.0624 168.8542 1070.0624 168.8542 918.5634 10.4662 918.5634"></polygon>
            <polygon id="Fill-194" fill="#FFFFFF" points="10.01 908.9901 10.01 918.0871 7.10542736e-15 918.0871 7.10542736e-15 918.8831 10.01 918.8831 10.01 928.1381 10.756 928.1381 10.756 918.8831 20.642 918.8831 20.642 918.0871 10.756 918.0871 10.756 908.9901"></polygon>
            <polygon id="Fill-195" fill="#FFFFFF" points="10.01 1060.4889 10.01 1069.5859 7.10542736e-15 1069.5859 7.10542736e-15 1070.3809 10.01 1070.3809 10.01 1079.6369 10.756 1079.6369 10.756 1070.3809 20.642 1070.3809 20.642 1069.5859 10.756 1069.5859 10.756 1060.4889"></polygon>
            <line x1="10.4506" y1="918.5642" x2="10.4506" y2="1070.0632" id="Stroke-196" stroke="#FFFFFF" stroke-width="0.051"></line>
        </g>
    </g>
</svg>