<?xml version="1.0" encoding="UTF-8"?>
<svg width="178px" height="55px" viewBox="0 0 178 55" version="1.1" xmlns="http://www.w3.org/2000/svg" xmlns:xlink="http://www.w3.org/1999/xlink">
    <title>编组 6</title>
    <g id="页面-1" stroke="none" stroke-width="1" fill="none" fill-rule="evenodd">
        <g id="驾驶舱2.0-登陆页" transform="translate(-1196.000000, -318.000000)" fill="#FFFFFF" fill-rule="nonzero">
            <g id="编组-6" transform="translate(1196.880000, 318.492298)">
                <path d="M15.85,28.7977017 C15.4031006,29.1489787 15.0207313,29.5753374 14.72,30.0577017 C14.3495493,30.7171797 14.0798953,31.4283923 13.92,32.1677017 C13.6592595,33.3137264 13.4788211,34.4765516 13.38,35.6477017 C13.23,37.0677017 13.09,38.8577017 12.94,41.0277017 C12.7994876,43.042506 12.5322927,45.0464681 12.14,47.0277017 C11.896765,48.3845575 11.416065,49.6878637 10.72,50.8777017 C10.1826801,51.7508595 9.40013216,52.4464577 8.47,52.8777017 C7.44682503,53.3138882 6.34192757,53.5253192 5.23,53.4977017 C4.24581769,53.4736384 3.27386256,53.2738288 2.36,52.9077017 C1.44194993,52.5999555 0.625745757,52.0465968 0,51.3077017 C0.680074739,51.4508187 1.37684786,51.4979435 2.07,51.4477017 C2.59372543,51.4057735 3.0907672,51.1992562 3.49,50.8577017 C3.92157511,50.4462853 4.24452477,49.9343757 4.43,49.3677017 C4.71355351,48.5558627 4.93420507,47.7234045 5.09,46.8777017 C5.28,45.7877017 5.45,44.7477017 5.6,43.7377017 C5.75,42.7277017 5.86,41.7377017 5.96,40.6177017 C6.06,39.4977017 6.15,38.4277017 6.25,37.2277017 C6.35,36.0277017 6.44,34.7077017 6.54,33.2277017 C6.61074408,32.5713736 6.86359674,31.9479013 7.27,31.4277017 C7.76951597,30.7802066 8.39987982,30.2452492 9.12,29.8577017 C10.0340347,29.3795599 11.0151302,29.0424137 12.03,28.8577017 C13.2933374,28.6486561 14.5807205,28.6284355 15.85,28.7977017 Z M10.98,15.7977017 C9.93134268,14.7759557 8.61906869,14.0661506 7.19,13.7477017 C6.18704147,13.5240303 5.13952351,13.6148152 4.19,14.0077017 C3.45940273,14.3019343 2.8983348,14.9070076 2.66,15.6577017 C2.46502883,16.4675281 2.76235964,17.3164858 3.42,17.8277017 C3.90794332,18.2950828 4.51224473,18.6231321 5.17,18.7777017 C5.94,19.0077017 6.67,19.2577017 7.35,19.5377017 C7.95819273,19.7762758 8.52253804,20.1142072 9.02,20.5377017 C9.46780442,20.9311706 9.58769321,21.5802237 9.31,22.1077017 C9.22,22.3277017 9.14,22.4977017 9.1,22.6077017 C9.06,22.7177017 8.88,22.8177017 8.59,22.8977017 C8.05,23.0077017 7.74,23.1777017 7.59,23.3977017 C7.49690689,23.6394585 7.56949051,23.9136633 7.77,24.0777017 C8.05446972,24.3342114 8.39802528,24.5162958 8.77,24.6077017 C9.28292927,24.7289746 9.81707073,24.7289746 10.33,24.6077017 C11.0384214,24.4832614 11.6971479,24.1608321 12.23,23.6777017 C12.8566348,23.0626681 13.2158835,22.2256186 13.23,21.3477017 C13.3326178,20.2781106 13.1461234,19.2005876 12.69,18.2277017 C12.2931956,17.2999611 11.711337,16.4629014 10.98,15.7677017 L10.98,15.7977017 Z M12.98,2.59770171 C11.9363259,1.57456013 10.6268121,0.864374099 9.2,0.547701709 C8.19770938,0.326016534 7.15177321,0.413177881 6.2,0.797701709 C5.46851866,1.09291475 4.90978832,1.7031071 4.68,2.45770171 C4.4812916,3.26477015 4.7796996,4.11287711 5.44,4.61770171 C5.9171397,5.08913665 6.50517138,5.43301483 7.15,5.61770171 C7.9,5.86770171 8.63,6.11770171 9.33,6.37770171 C9.95347175,6.60978342 10.5320258,6.94811914 11.04,7.37770171 C11.4844898,7.77304542 11.6039276,8.41965669 11.33,8.94770171 C11.2587046,9.12334283 11.1751659,9.2937618 11.08,9.45770171 C10.9307739,9.60668962 10.7382695,9.70469187 10.53,9.73770171 C10,9.84770171 9.7,10.0277017 9.62,10.2677017 C9.54815385,10.5180176 9.6351472,10.7869061 9.84,10.9477017 C10.1322423,11.1862902 10.4737838,11.3570609 10.84,11.4477017 C11.3529293,11.5689746 11.8870707,11.5689746 12.4,11.4477017 C13.0867513,11.2945493 13.7254273,10.9752113 14.26,10.5177017 C14.8812511,9.92364176 15.2409783,9.10706096 15.26,8.24770171 C15.4062468,7.16061525 15.2288567,6.05453572 14.75,5.06770171 C14.3264151,4.13574023 13.7368157,3.28861456 13.01,2.56770171 L12.98,2.59770171 Z M49.93,7.08770171 C49.3251897,7.98760454 48.6568194,8.84311847 47.93,9.64770171 C47.1283119,10.5478331 46.2769868,11.4024968 45.38,12.2077017 C44.46,13.0277017 43.5,13.8277017 42.51,14.5977017 C41.52,15.3677017 40.51,16.0477017 39.51,16.6477017 L44.6,16.6477017 C47.5133333,15.4877017 49.72,15.1543684 51.22,15.6477017 C52.663464,16.0435865 53.61565,17.4170938 53.48,18.9077017 L53.48,40.2577017 C53.6014307,41.7013967 53.002749,43.1120405 51.88,44.0277017 C50.7546173,44.8277482 49.4003629,45.241743 48.02,45.2077017 C47.2634267,45.2523321 46.5061435,45.1329406 45.8,44.8577017 C45.4123142,44.6761084 45.0705194,44.4095084 44.8,44.0777017 C44.5987746,43.8052131 44.381735,43.5447656 44.15,43.2977017 C43.8103874,43.0307534 43.3791674,42.9085744 42.95,42.9577017 L26.37,42.9577017 C25.9968094,43.8054578 25.3027863,44.4707131 24.44,44.8077017 C23.534128,45.1873704 22.5451643,45.3252051 21.57,45.2077017 C20.5141868,45.073938 19.4949088,44.7341787 18.57,44.2077017 C17.6129044,43.6994637 16.800785,42.9561679 16.21,42.0477017 C17.0676738,42.3488056 18.0023262,42.3488056 18.86,42.0477017 C19.37,41.7677017 19.62,41.1377017 19.62,40.1677017 L19.62,18.8677017 C19.6202035,18.7069515 19.5713631,18.5499645 19.48,18.4177017 C18.6255444,19.1179188 17.7270312,19.762577 16.79,20.3477017 C15.92,20.8977017 15.09,21.3477017 14.31,21.7877017 C16.6135807,18.8145347 18.591564,15.6028263 20.21,12.2077017 C22.0859419,8.33705971 23.5958474,4.29948548 24.72,0.147701709 L33.3,1.77770171 L31.7,4.67770171 C31.1694487,5.61726113 30.585145,6.52543604 29.95,7.39770171 L41.37,7.39770171 L42.17,5.03770171 L49.93,7.08770171 Z M56.18,51.2677017 C56.81,51.2677017 57.18,51.4977017 57.18,51.9677017 C57.1692628,52.1608285 57.059622,52.3347415 56.89,52.4277017 C56.6914475,52.5489056 56.4625949,52.6113199 56.23,52.6077017 L19.87,52.6077017 C18.8397519,52.6229042 17.8177634,52.4219131 16.87,52.0177017 C16.0126506,51.7077631 15.4148152,50.926279 15.34,50.0177017 C15.239324,49.248661 15.3643996,48.4669382 15.7,47.7677017 C15.9250883,47.140483 16.495882,46.7026139 17.16,46.6477017 C17.4134229,46.6269661 17.6556679,46.755903 17.78,46.9777017 C17.9166766,47.161771 17.9166766,47.4136324 17.78,47.5977017 C17.5509894,47.984227 17.3792041,48.4019011 17.27,48.8377017 C17.1747636,49.2323477 17.2134604,49.6474586 17.38,50.0177017 C17.5953094,50.4273789 17.9499847,50.7465866 18.38,50.9177017 C19.0170258,51.1643527 19.6972542,51.2799915 20.38,51.2577017 L56.18,51.2677017 Z M23.12,15.3777017 C24.2211111,15.3639523 25.2772267,15.813981 26.03,16.6177017 L36.87,16.6177017 C37.55,15.4877017 38.24,14.2577017 38.94,12.9077017 C39.64,11.5577017 40.29,10.1677017 40.87,8.74770171 L29.01,8.74770171 C28.0366667,9.98770171 27.07,11.1577017 26.11,12.2577017 C25.12,13.3677017 24.12,14.4077017 23.12,15.3777017 Z M26.83,19.0977017 L26.83,28.5077017 L33.45,28.5077017 L33.45,17.9677017 L26.69,17.9677017 C26.69,18.1577017 26.77,18.3377017 26.8,18.5277017 C26.8199678,18.7170458 26.8299816,18.9073076 26.83,19.0977017 L26.83,19.0977017 Z M26.83,41.5677017 L33.45,41.5677017 L33.45,29.8777017 L26.83,29.8777017 L26.83,41.5677017 L26.83,41.5677017 Z M46.54,19.9977017 C46.5492806,19.5075389 46.4358396,19.0228364 46.21,18.5877017 C45.9988978,18.1711404 45.5550838,17.9254576 45.09,17.9677017 L40.51,17.9677017 L40.51,28.5077017 L46.51,28.5077017 L46.54,19.9977017 Z M44,41.5677017 C45.69,41.5677017 46.54,40.9477017 46.54,39.7177017 L46.54,29.8777017 L40.54,29.8777017 L40.54,41.5677017 L44,41.5677017 Z" id="形状"></path>
                <path d="M89.12,19.9277017 C91.85239,18.8494886 94.6774247,18.0227309 97.56,17.4577017 C99.9550123,16.9899405 102.389738,16.7555103 104.83,16.7576774 C106.871933,16.7549871 108.907816,16.9797057 110.9,17.4277017 C112.544501,17.7986736 114.141443,18.3555901 115.66,19.0877017 C113.840668,18.8361564 112.006622,18.705869 110.17,18.6977017 C108.427035,18.699817 106.687416,18.8503609 104.97,19.1477017 C103.110963,19.4789347 101.2767,19.936665 99.48,20.5177017 C97.5666667,21.1377017 95.47,21.9343684 93.19,22.9077017 C91.69,23.5477017 90.31,24.0977017 89.05,24.5677017 C87.8376019,25.0226036 86.5986456,25.4033071 85.34,25.7077017 C84.12,25.9977017 82.94,26.2277017 81.77,26.4077017 C80.6,26.5877017 79.37,26.7177017 78.07,26.7877017 L102.5,26.7877017 C105.406667,25.6277017 107.673333,25.261035 109.3,25.6877017 C110.801951,25.968774 111.852661,27.3338364 111.74,28.8577017 L111.74,48.3777017 C111.849715,49.9034399 111.193813,51.3839062 109.99,52.3277017 C108.841957,53.2029379 107.433482,53.6677345 105.99,53.6477017 C105.15097,53.6920318 104.311472,53.5696758 103.52,53.2877017 C103.05536,53.0843765 102.626528,52.8074927 102.25,52.4677017 L101.37,51.6577017 C100.98523,51.3713207 100.507203,51.2393282 100.03,51.2877017 L77.63,51.2877017 C77.2754186,52.0410858 76.6713037,52.6487335 75.92,53.0077017 C75.1559391,53.3628448 74.3225424,53.5438695 73.48,53.5377017 C72.0037094,53.6070739 70.5465647,53.1811934 69.34,52.3277017 C68.2633642,51.5244625 67.3070319,50.5714976 66.5,49.4977017 C67.3970053,49.8710739 68.3772734,49.9987849 69.34,49.8677017 C70.02,49.6977017 70.34,49.1477017 70.34,48.2077017 L70.34,28.2977017 C70.3418117,28.0355645 70.314986,27.7740135 70.26,27.5177017 C70.1950477,27.2664343 70.042573,27.046587 69.83,26.8977017 C68.7444695,26.8708987 67.6619967,26.7706697 66.59,26.5977017 C65.618623,26.452054 64.6593422,26.2347953 63.72,25.9477017 C62.9369808,25.7154197 62.1797214,25.4038042 61.46,25.0177017 C60.9098528,24.7305343 60.4366139,24.315593 60.08,23.8077017 C59.6,23.0577017 59.51,22.4377017 59.83,21.9577017 C60.1608622,21.4621501 60.6629174,21.1060826 61.24,20.9577017 C61.8905409,20.7706385 62.5765963,20.7431963 63.24,20.8777017 C63.8243079,20.9504963 64.350801,21.2663922 64.69,21.7477017 C65.3079925,22.7671536 66.1707527,23.6161647 67.2,24.2177017 C68.4902699,24.9760707 69.9634863,25.3668535 71.46,25.3477017 C72.8261554,25.3510989 74.1893497,25.2204734 75.53,24.9577017 C76.8872282,24.6714178 78.2235959,24.2938939 79.53,23.8277017 C80.91,23.3377017 82.37,22.7577017 83.93,22.0877017 C85.49,21.4177017 87.27,20.6777017 89.12,19.9277017 Z M77.77,5.65770171 C76.9333297,7.03306801 75.9252532,8.29652385 74.77,9.41770171 C73.4602454,10.7384986 72.0382338,11.943026 70.52,13.0177017 C68.9251631,14.1328167 67.2544364,15.1352527 65.52,16.0177017 C63.9272956,16.8561639 62.2515874,17.5264471 60.52,18.0177017 C61.4620626,17.1779923 62.3256343,16.2541713 63.1,15.2577017 C64.0307251,14.0926009 64.8922087,12.8738352 65.68,11.6077017 C66.5035883,10.3153018 67.2579833,8.98008953 67.94,7.60770171 C68.5711106,6.32718166 69.1286825,5.01171274 69.61,3.66770171 L77.77,5.65770171 Z M101.26,49.9377017 C102.012046,50.0081961 102.763592,49.7980483 103.37,49.3477017 C103.801473,48.9745196 104.043552,48.4280089 104.03,47.8577017 L104.03,43.4177017 L78.03,43.4177017 L78.03,49.0977017 C78.040825,49.2374925 78.040825,49.377911 78.03,49.5177017 C78.0142282,49.6572575 78.0142282,49.7981459 78.03,49.9377017 L101.26,49.9377017 Z M78.12,28.1377017 L78.12,34.5077017 L104.12,34.5077017 L104.12,30.1077017 C104.131511,29.5996116 103.949161,29.1061956 103.61,28.7277017 C103.287296,28.3400498 102.804162,28.1224549 102.3,28.1377017 L78.12,28.1377017 Z M78.12,42.0777017 L104.12,42.0777017 L104.12,35.8877017 L78.12,35.8877017 L78.12,42.0777017 Z M112.59,14.0777017 C113.07,14.0777017 113.35,13.9077017 113.42,13.5677017 C113.49,13.2277017 113.57,12.8877017 113.64,12.5677017 C113.710387,12.2155329 113.888629,11.8939987 114.15,11.6477017 C114.42,11.3777017 114.96,11.3277017 115.79,11.4777017 C116.42,11.5877017 116.79,11.8377017 116.95,12.2377017 C117.099637,12.6237073 117.099637,13.0516961 116.95,13.4377017 C116.623327,13.9984343 116.110149,14.4266722 115.5,14.6477017 C114.542035,15.0118076 113.524801,15.1949098 112.5,15.1877017 C109.11,15.1877017 106.64,14.7477017 105.09,13.7477017 C103.573688,12.8353624 102.679246,11.1654812 102.76,9.39770171 L102.76,8.50770171 C102.76,7.50770171 101.98,6.85770171 100.42,6.50770171 C98.86,6.15770171 96.24,6.25770171 92.58,6.89770171 L92.58,13.7577017 C92.6568862,14.8700675 92.1492095,15.9422504 91.24,16.5877017 C90.3192822,17.2323964 89.2239709,17.5812217 88.1,17.5877017 C86.8366712,17.5967514 85.5880621,17.3162419 84.45,16.7677017 C83.2707574,16.2536138 82.2764768,15.3919039 81.6,14.2977017 C82.4528613,14.6258297 83.3971387,14.6258297 84.25,14.2977017 C84.8056511,13.8668124 85.0942114,13.1757864 85.01,12.4777017 L85.01,4.09770171 C85.0602331,3.48345848 84.7680858,2.89147588 84.25,2.55770171 C83.405558,2.21313758 82.4658736,2.18122377 81.6,2.46770171 C83.0031495,1.54416452 84.5368747,0.836291339 86.15,0.367701709 C87.2730783,0.0270336977 88.4543199,-0.0784950908 89.62,0.057701709 C90.4661024,0.147821181 91.2493296,0.546555009 91.82,1.17770171 C92.3355493,1.81196787 92.6053536,2.61073054 92.58,3.42770171 L92.65,5.84770171 C95.1224519,5.23197323 97.6406666,4.81728714 100.18,4.60770171 C101.974361,4.43873259 103.783137,4.50597335 105.56,4.80770171 C106.741536,4.96831141 107.852162,5.46462237 108.76,6.23770171 C109.420019,6.86702636 109.783246,7.74603582 109.76,8.65770171 L109.76,10.5677017 C109.647799,11.568383 109.880644,12.5773798 110.42,13.4277017 C111.019535,13.9336691 111.800057,14.1721618 112.58,14.0877017 L112.59,14.0777017 Z" id="形状"></path>
                <path d="M128.12,31.8977017 C127.345389,33.0629379 126.226852,33.9577674 124.92,34.4577017 C123.987685,34.8139116 122.962546,34.8456169 122.01,34.5477017 C121.226453,34.2845528 120.593079,33.6984999 120.27,32.9377017 C119.931965,32.1097203 120.0414,31.1663134 120.56,30.4377017 C121.073587,29.5971547 121.710718,28.8386649 122.45,28.1877017 C123.18,27.5577017 123.73,27.0277017 124.12,26.6177017 C124.75,25.9477017 124.98,25.3777017 124.81,24.9377017 C124.64,24.4977017 124.14,24.1877017 123.32,24.0377017 C122.5,23.8877017 122.23,23.7877017 122.09,23.5277017 C121.941282,23.2648513 122.000013,22.9334397 122.23,22.7377017 C122.578114,22.4223489 123.007732,22.2110047 123.47,22.1277017 C124.126529,21.9786706 124.805718,21.9582949 125.47,22.0677017 C126.074617,22.1622841 126.655261,22.37281 127.18,22.6877017 C127.830211,23.0676863 128.349777,23.6360715 128.67,24.3177017 C129.262464,25.5381711 129.51466,26.8958834 129.4,28.2477017 C129.350487,29.565479 128.904365,30.8376259 128.12,31.8977017 L128.12,31.8977017 Z M136.27,9.58770171 C136.235181,9.01402954 135.900821,8.50109134 135.39,8.23770171 C134.452636,7.80666297 133.406415,7.67065423 132.39,7.84770171 C134.054867,6.89946572 135.832063,6.1637269 137.68,5.65770171 C138.831826,5.32862137 140.045783,5.28061179 141.22,5.51770171 C142.039428,5.68439948 142.758948,6.17007555 143.22,6.86770171 C143.632756,7.53357068 143.844565,8.30441578 143.83,9.08770171 L143.83,39.7677017 C143.815491,41.4967295 143.925778,43.2245503 144.16,44.9377017 C144.321252,46.2582379 144.72826,47.536923 145.36,48.7077017 C145.894463,49.6786157 146.705476,50.4687439 147.69,50.9777017 C148.870408,51.5246392 150.174697,51.7489217 151.47,51.6277017 C153.875879,51.6167291 156.220816,50.8699783 158.19,49.4877017 C160.034742,48.175298 161.542535,46.4447628 162.59,44.4377017 C163.106852,43.2758166 164.04224,42.3511395 165.21,41.8477017 C166.127275,41.4448536 167.156236,41.3741346 168.12,41.6477017 C169.06995,41.8934625 169.814937,42.6301191 170.071364,43.5772451 C170.327791,44.5243711 170.056208,45.5362563 169.36,46.2277017 C167.481523,48.714986 164.895088,50.5763829 161.94,51.5677017 C158.169521,52.9396267 154.169751,53.5711693 150.16,53.4277017 C148.235563,53.4137095 146.324179,53.1103152 144.49,52.5277017 C142.869499,52.005837 141.37946,51.143183 140.12,49.9977017 C138.871121,48.8413868 137.897257,47.4198872 137.27,45.8377017 C136.563999,43.9735139 136.224455,41.9905788 136.27,39.9977017 L136.27,9.58770171 Z M154.27,10.4877017 C153.327506,9.50902441 152.661519,8.29782677 152.34,6.97770171 C151.956088,5.67200373 151.956088,4.28339969 152.34,2.97770171 C152.517243,2.28252943 152.926473,1.6686843 153.5,1.23770171 C153.984752,0.885668136 154.525781,0.618535227 155.1,0.447701709 C155.744446,0.236623331 156.429173,0.178421525 157.1,0.277701709 C157.570896,0.341549319 158.019889,0.516347986 158.41,0.787701709 C158.671319,0.928141521 158.793708,1.23622367 158.7,1.51770171 C158.6,1.77770171 158.24,1.98770171 157.61,2.12770171 C156.78,2.35770171 156.33,2.70770171 156.26,3.12770171 C156.19,3.54770171 156.52,4.12770171 157.26,4.73770171 C157.897702,5.2536303 158.56555,5.73114147 159.26,6.16770171 C160.097495,6.72890317 160.85448,7.40177885 161.51,8.16770171 C162.138169,8.81653912 162.4106,9.73086374 162.24,10.6177017 C162.054876,11.4066592 161.521452,12.0688413 160.79,12.4177017 C159.874271,12.8239283 158.846395,12.9016372 157.88,12.6377017 C156.493195,12.2845964 155.234676,11.5461266 154.25,10.5077017 L154.27,10.4877017 Z M168.27,31.2877017 C167.319994,30.3106321 166.652955,29.0940636 166.34,27.7677017 C165.956088,26.4620037 165.956088,25.0733997 166.34,23.7677017 C166.517243,23.0725294 166.926473,22.4586843 167.5,22.0277017 C167.98362,21.6737981 168.524984,21.4064996 169.1,21.2377017 C169.745228,21.030496 170.429056,20.9723706 171.1,21.0677017 C171.566391,21.1369577 172.01093,21.3113536 172.4,21.5777017 C172.661964,21.717749 172.787788,22.023921 172.7,22.3077017 C172.6,22.5677017 172.24,22.7777017 171.6,22.9277017 C170.78,23.1477017 170.33,23.4977017 170.26,23.9277017 C170.19,24.3577017 170.51,24.9277017 171.26,25.5277017 C171.895842,26.0460696 172.563843,26.5236902 173.26,26.9577017 C174.097038,27.5194933 174.853947,28.1923016 175.51,28.9577017 C176.137993,29.6025512 176.410654,30.5139128 176.24,31.3977017 C176.0568,32.1906707 175.518102,32.8548199 174.78,33.1977017 C173.864433,33.6032708 172.837912,33.6844048 171.87,33.4277017 C170.503734,33.0544413 169.265679,32.3143746 168.29,31.2877017 L168.27,31.2877017 Z" id="形状"></path>
            </g>
        </g>
    </g>
</svg>