<?xml version="1.0" encoding="UTF-8"?>
<svg width="40px" height="45px" viewBox="0 0 40 45" version="1.1" xmlns="http://www.w3.org/2000/svg" xmlns:xlink="http://www.w3.org/1999/xlink">
    <title>编组 2</title>
    <g id="页面-1" stroke="none" stroke-width="1" fill="none" fill-rule="evenodd">
        <g id="驾驶舱2.0-登陆页" transform="translate(-77.000000, -995.000000)" fill="#FFFFFF" fill-rule="nonzero">
            <g id="编组-2" transform="translate(77.000000, 995.000000)">
                <path d="M19.6621191,29.17 L13.6621191,25.83 L13.5421191,18.9 L14.2521191,18.5 L19.4321191,15.38 L20.1121191,15.73 L25.4721191,18.73 L25.4721191,19.48 L25.5821191,25.6 L24.9221191,26.04 L19.6621191,29.17 Z M16.1921191,24.28 L19.6121191,26.17 L22.9621191,24.17 L22.8921191,20.26 L19.4721191,18.37 L16.1221191,20.37 L16.1921191,24.28 Z" id="形状"></path>
                <path d="M19.9421191,44.42 L0.492119083,33.68 L0.492119083,32.92 L0.102119083,11.4 L0.792119083,11 L19.1521191,0 L19.8221191,0.35 L38.6121191,10.68 L39.0121191,32.89 L38.3521191,33.33 L19.9421191,44.42 Z M3.04211908,32.1 L19.8921191,41.43 L36.3921191,31.5 L36.0421191,12.24 L19.1921191,2.92 L2.69211908,12.85 L3.04211908,32.1 Z" id="形状"></path>
                <path d="M11.1021191,18.68 C10.8885105,18.6792361 10.6786026,18.6241783 10.4921191,18.52 L0.782119083,13.3 C0.331891992,13.1044531 0.0301963577,12.6719871 0.0021347094,12.1819304 C-0.0259269389,11.6918737 0.224430771,11.227796 0.649393334,10.9821339 C1.0743559,10.7364718 1.60145416,10.7511183 2.01211908,11.02 L11.7221191,16.24 C12.242026,16.524945 12.5032841,17.1255512 12.3572762,17.7001629 C12.2112683,18.2747746 11.6949868,18.6778092 11.1021191,18.68 Z" id="路径"></path>
                <path d="M27.5221191,18.6800033 C26.9310924,18.6733305 26.4189569,18.2687957 26.2756028,17.6953791 C26.1322486,17.1219624 26.3937635,16.524015 26.9121191,16.24 L36.6221191,11.02 C37.2414252,10.7510171 37.9635601,11.0009205 38.2841373,11.5951612 C38.6047146,12.189402 38.4170058,12.9301421 37.8521191,13.3 L28.1421191,18.52 C27.9525101,18.625412 27.7390592,18.6804961 27.5221191,18.6800033 Z" id="路径"></path>
                <path d="M19.8121191,43.77 C19.0980572,43.7645071 18.522098,43.184083 18.5221191,42.47 L18.5221191,32.38 C18.4790339,31.8901721 18.716007,31.4179531 19.1344771,31.1597468 C19.5529473,30.9015406 20.0812909,30.9015406 20.499761,31.1597468 C20.9182312,31.4179531 21.1552042,31.8901721 21.1121191,32.38 L21.1121191,42.47 C21.1121191,43.1879702 20.5300893,43.77 19.8121191,43.77 L19.8121191,43.77 Z" id="路径"></path>
            </g>
        </g>
    </g>
</svg>